<?xml version="1.0" encoding="utf-8"?>
<!-- Generator: Adobe Illustrator 19.1.0, SVG Export Plug-In . SVG Version: 6.00 Build 0)  -->
<svg version="1.1" id="Layer_1" xmlns="http://www.w3.org/2000/svg" xmlns:xlink="http://www.w3.org/1999/xlink" x="0px" y="0px"
	 viewBox="0 0 64 64" enable-background="new 0 0 64 64" xml:space="preserve">
<g>
	<polygon fill="#3DE3F4" points="15.659,11.739 12.45,8.53 7.055,13.929 10.264,17.138 	"/>
	<path fill="#3DE3F4" d="M28.364,2.662L28.364,2.662L10.208,20.82v36.508c0,2.508,2.033,4.539,4.54,4.539h36.31
		c2.508,0,4.541-2.031,4.541-4.539V2.662H28.364z M42.267,37.193l-0.022-0.022c-0.91,4.553-5.008,8.29-9.689,8.604
		c-1.903,0.127-3.633-0.332-5.037-1.221l-5.24,5.24l-2.06-2.063l5.178-5.178c-1.048-1.463-1.603-3.332-1.464-5.402
		c0.313-4.68,4.049-8.777,8.602-9.688l-0.023-0.022l12.411-2.656L42.267,37.193z M51.059,11.739H25.706l4.539-4.539h20.814
		L51.059,11.739L51.059,11.739z"/>
</g>
</svg>
