<?xml version="1.0" encoding="utf-8"?>
<!-- Generator: Adobe Illustrator 19.1.0, SVG Export Plug-In . SVG Version: 6.00 Build 0)  -->
<svg version="1.1" id="Layer_1" xmlns="http://www.w3.org/2000/svg" xmlns:xlink="http://www.w3.org/1999/xlink" x="0px" y="0px"
	 viewBox="0 0 87.261 153.865" enable-background="new 0 0 87.261 153.865" xml:space="preserve">
<g>
	<g>
		<path d="M42.131,0C18.864,0,0,18.863,0,42.131c0,7.661,2.153,14.783,5.617,21.035c10.347,18.64,13.087,29.107,14.774,39.237
			c1.417,8.492,3.377,10.464,9.791,10.464c2.728,0,7.194,0,11.949,0s9.221,0,11.947,0c6.418,0,8.376-1.975,9.793-10.464
			c1.688-10.13,4.429-20.599,14.776-39.237c3.465-6.251,5.615-13.374,5.615-21.035C84.263,18.863,65.398,0,42.131,0z"/>
		<path d="M57.185,115.917H27.076c-1.246,0-2.258,1.01-2.258,2.258v1.505c0,1.248,1.012,2.258,2.258,2.258h30.108
			c1.246,0,2.258-1.01,2.258-2.258v-1.505C59.443,116.927,58.431,115.917,57.185,115.917z"/>
		<path d="M57.185,124.95H27.076c-1.246,0-2.258,1.01-2.258,2.258v1.505c0,1.248,1.012,2.258,2.258,2.258h30.108
			c1.246,0,2.258-1.01,2.258-2.258v-1.505C59.443,125.96,58.431,124.95,57.185,124.95z"/>
		<path d="M57.185,133.982H27.076c-1.246,0-2.258,1.01-2.258,2.258v1.505c0,1.248,1.012,2.258,2.258,2.258h30.108
			c1.246,0,2.258-1.01,2.258-2.258v-1.505C59.443,134.993,58.431,133.982,57.185,133.982z"/>
		<path d="M30.84,143.015h22.581c0,4.516-6.022,7.527-11.291,7.527S30.84,147.531,30.84,143.015z"/>
	</g>
	<g>
		<polygon fill="#1CE9F9" points="30.648,32.093 28.504,29.948 24.899,33.556 27.043,35.7 		"/>
		<path fill="#1CE9F9" d="M39.138,26.027L39.138,26.027L27.005,38.161v24.395c0,1.676,1.358,3.033,3.034,3.033h24.263
			c1.676,0,3.034-1.357,3.034-3.033V26.027H39.138z M48.428,49.101l-0.015-0.015c-0.608,3.043-3.347,5.539-6.475,5.749
			c-1.271,0.085-2.428-0.222-3.366-0.816l-3.501,3.501l-1.376-1.379l3.46-3.46c-0.7-0.978-1.071-2.226-0.978-3.61
			c0.209-3.127,2.706-5.865,5.748-6.474l-0.016-0.015l8.293-1.775L48.428,49.101z M54.302,32.093H37.362l3.033-3.033h13.908V32.093
			L54.302,32.093z"/>
	</g>
</g>
</svg>
