<?xml version="1.0" encoding="utf-8"?>
<!-- Generator: Adobe Illustrator 19.1.0, SVG Export Plug-In . SVG Version: 6.00 Build 0)  -->
<svg version="1.1" id="Layer_1" xmlns="http://www.w3.org/2000/svg" xmlns:xlink="http://www.w3.org/1999/xlink" x="0px" y="0px"
	 viewBox="0 0 393 520" enable-background="new 0 0 393 520" xml:space="preserve">
<g>
	<g>
		<path fill="#1CE9F9" d="M94.393,155.456l-10.199-7.367l-21.118,0.003l2.877-3.983l16.572,0.111l-5.443-15.521l2.846-3.939
			l6.732,19.916l10.2,7.366L94.393,155.456z"/>
		<path fill="#1CE9F9" d="M115.502,133.024c-1.743,1.507-3.588,2.578-5.535,3.216s-3.879,0.867-5.793,0.689
			c-1.914-0.177-3.769-0.738-5.562-1.687c-1.795-0.946-3.41-2.251-4.847-3.912c-1.436-1.66-2.493-3.447-3.171-5.36
			c-0.679-1.912-0.966-3.828-0.865-5.748c0.102-1.919,0.607-3.797,1.52-5.632s2.238-3.507,3.981-5.014
			c1.742-1.507,3.589-2.578,5.536-3.216c1.948-0.637,3.879-0.866,5.793-0.689c1.913,0.178,3.768,0.739,5.562,1.687
			c1.794,0.947,3.41,2.251,4.846,3.912c1.437,1.661,2.493,3.448,3.172,5.36c0.678,1.912,0.966,3.829,0.865,5.748
			c-0.102,1.92-0.607,3.798-1.52,5.632C118.572,129.846,117.245,131.518,115.502,133.024z M113.065,130.206
			c1.252-1.083,2.202-2.297,2.849-3.641s0.982-2.729,1.01-4.157c0.027-1.427-0.227-2.849-0.762-4.267
			c-0.535-1.417-1.355-2.766-2.463-4.046c-1.106-1.279-2.328-2.293-3.665-3.041s-2.707-1.204-4.111-1.371
			c-1.405-0.165-2.819-0.025-4.242,0.42c-1.424,0.445-2.762,1.21-4.014,2.292c-1.28,1.107-2.236,2.326-2.869,3.659
			c-0.633,1.332-0.969,2.705-1.008,4.118c-0.038,1.415,0.216,2.837,0.763,4.267c0.547,1.432,1.374,2.786,2.48,4.066
			s2.322,2.287,3.647,3.021c1.324,0.734,2.695,1.191,4.111,1.37c1.416,0.18,2.829,0.053,4.239-0.381
			C110.44,132.083,111.785,131.312,113.065,130.206z"/>
		<path fill="#1CE9F9" d="M142.254,115.389c-1.911,0.928-3.704,1.479-5.38,1.652c-1.677,0.175-3.226,0.016-4.644-0.477
			c-1.42-0.491-2.694-1.282-3.825-2.375c-1.13-1.092-2.097-2.464-2.898-4.115l-7.973-16.418l3.837-1.864l7.855,16.176
			c1.164,2.397,2.731,3.978,4.702,4.74c1.972,0.764,4.204,0.54,6.698-0.671c2.493-1.211,4.058-2.831,4.693-4.86
			s0.371-4.242-0.793-6.639l-7.854-16.176l3.838-1.863l7.973,16.418c1.604,3.304,1.922,6.411,0.954,9.321
			C148.47,111.15,146.075,113.533,142.254,115.389z"/>
		<path fill="#1CE9F9" d="M172.021,104.327l-3.314-29.515l12.664-1.422c1.609-0.181,3.041-0.098,4.294,0.251
			c1.252,0.349,2.336,0.888,3.252,1.618c0.915,0.731,1.64,1.618,2.174,2.663c0.533,1.046,0.869,2.176,1.006,3.392
			c0.137,1.217,0.06,2.394-0.229,3.531c-0.289,1.138-0.789,2.162-1.502,3.075c-0.713,0.914-1.65,1.68-2.812,2.3
			c-1.163,0.619-2.549,1.02-4.158,1.2l-8.425,0.946l1.289,11.483L172.021,104.327z M182.609,87.814
			c1.933-0.218,3.324-0.89,4.175-2.018c0.852-1.129,1.191-2.461,1.019-4c-0.177-1.574-0.812-2.797-1.907-3.671
			c-1.095-0.873-2.59-1.204-4.485-0.99l-8.049,0.903l1.199,10.679L182.609,87.814z"/>
		<path fill="#1CE9F9" d="M212.369,73.567l9.828,30.699l-4.68-0.419l-2.165-6.7l-15.113-1.354l-3.321,6.209l-4.732-0.424
			l15.182-28.459L212.369,73.567z M209.5,77.756l-7.637,14.442l12.531,1.123L209.5,77.756z"/>
		<path fill="#1CE9F9" d="M233.476,108.877c-2.504-0.799-4.591-1.928-6.26-3.386c-1.67-1.459-2.886-3.009-3.646-4.649l3.129-2.346
			c0.632,1.335,1.616,2.661,2.954,3.975c1.338,1.315,3.018,2.296,5.042,2.941c1.234,0.394,2.333,0.594,3.295,0.598
			c0.962,0.006,1.788-0.128,2.479-0.398c0.69-0.271,1.258-0.656,1.701-1.157s0.764-1.061,0.961-1.678
			c0.383-1.2,0.249-2.264-0.399-3.188c-0.65-0.925-1.555-1.79-2.715-2.595s-2.44-1.62-3.84-2.444
			c-1.4-0.824-2.652-1.725-3.758-2.701s-1.931-2.091-2.477-3.341c-0.545-1.252-0.544-2.733,0.003-4.449
			c0.372-1.165,0.972-2.155,1.798-2.969s1.817-1.433,2.974-1.857c1.155-0.425,2.422-0.634,3.8-0.629
			c1.377,0.005,2.787,0.237,4.228,0.697c2.332,0.744,4.258,1.755,5.776,3.033c1.52,1.278,2.694,2.75,3.523,4.412l-3.012,2.156
			c-0.726-1.516-1.755-2.789-3.089-3.819c-1.335-1.03-2.772-1.792-4.315-2.284c-1.784-0.569-3.376-0.614-4.775-0.136
			c-1.4,0.479-2.308,1.371-2.724,2.674c-0.328,1.029-0.151,1.955,0.531,2.777c0.682,0.822,1.608,1.618,2.78,2.389
			c1.171,0.771,2.444,1.574,3.821,2.41s2.61,1.769,3.699,2.796c1.09,1.028,1.893,2.211,2.411,3.547
			c0.518,1.337,0.492,2.897-0.076,4.681c-0.384,1.2-0.963,2.243-1.736,3.13c-0.774,0.887-1.747,1.568-2.92,2.044
			c-1.172,0.477-2.521,0.708-4.047,0.692C237.068,109.787,235.361,109.479,233.476,108.877z"/>
		<path fill="#1CE9F9" d="M256.566,118.971c-2.287-1.295-4.099-2.827-5.434-4.596c-1.337-1.77-2.209-3.535-2.618-5.298l3.544-1.655
			c0.345,1.437,1.037,2.936,2.078,4.496c1.04,1.561,2.483,2.864,4.332,3.91c1.128,0.639,2.162,1.059,3.104,1.26
			c0.94,0.202,1.776,0.241,2.509,0.117c0.731-0.123,1.365-0.385,1.902-0.785c0.536-0.399,0.964-0.881,1.283-1.445
			c0.621-1.096,0.707-2.164,0.262-3.202c-0.447-1.038-1.155-2.07-2.126-3.096c-0.972-1.025-2.058-2.085-3.259-3.179
			c-1.201-1.093-2.242-2.23-3.125-3.413c-0.882-1.182-1.463-2.441-1.74-3.777c-0.278-1.336,0.026-2.786,0.913-4.354
			c0.603-1.064,1.393-1.911,2.367-2.538c0.976-0.627,2.072-1.03,3.291-1.209c1.218-0.18,2.5-0.126,3.849,0.161
			c1.347,0.287,2.679,0.803,3.995,1.548c2.13,1.205,3.808,2.59,5.033,4.152c1.226,1.562,2.074,3.242,2.546,5.039l-3.39,1.494
			c-0.4-1.632-1.147-3.089-2.241-4.371c-1.096-1.281-2.348-2.321-3.758-3.119c-1.629-0.922-3.178-1.291-4.646-1.109
			c-1.469,0.183-2.54,0.869-3.214,2.06c-0.531,0.939-0.548,1.883-0.048,2.827c0.498,0.944,1.243,1.913,2.232,2.907
			c0.988,0.994,2.071,2.041,3.247,3.142c1.177,1.101,2.193,2.265,3.049,3.493c0.855,1.229,1.4,2.552,1.634,3.966
			s-0.11,2.937-1.032,4.565c-0.621,1.097-1.401,1.999-2.34,2.709c-0.939,0.709-2.031,1.177-3.276,1.403
			c-1.245,0.226-2.613,0.176-4.104-0.15C259.896,120.597,258.289,119.945,256.566,118.971z"/>
		<path fill="#1CE9F9" d="M270.357,126.764l19.597-22.317l15.501,13.61l-2.459,2.8l-12.295-10.795l-5.879,6.694l12.092,10.618
			l-2.458,2.8l-12.092-10.617l-6.343,7.223l12.295,10.796l-2.458,2.8L270.357,126.764z"/>
		<path fill="#1CE9F9" d="M289.273,143.865l24.12-17.33l6.302,8.771c1.406,1.958,2.376,3.955,2.907,5.989
			c0.53,2.034,0.646,4.001,0.349,5.9c-0.298,1.898-0.971,3.678-2.016,5.338c-1.047,1.66-2.417,3.1-4.112,4.317
			c-1.726,1.24-3.534,2.085-5.426,2.536c-1.894,0.451-3.772,0.504-5.637,0.16c-1.866-0.345-3.678-1.093-5.437-2.245
			s-3.342-2.708-4.749-4.667L289.273,143.865z M298.601,150.462c1.071,1.491,2.256,2.646,3.554,3.465
			c1.297,0.818,2.639,1.329,4.024,1.53s2.774,0.111,4.165-0.267c1.39-0.378,2.699-1.009,3.928-1.891
			c1.256-0.903,2.299-1.951,3.126-3.145c0.827-1.192,1.367-2.478,1.618-3.855c0.252-1.377,0.196-2.812-0.165-4.303
			c-0.363-1.491-1.09-2.997-2.182-4.517l-3.812-5.307l-18.068,12.981L298.601,150.462z"/>
	</g>
	<path fill="none" stroke="#1CE9F9" stroke-width="4" stroke-linejoin="round" stroke-miterlimit="10" d="M196,4.525
		C90.704,4.525,5.33,89.892,5.33,195.195c0,34.672,9.743,66.904,25.42,95.199c46.826,84.359,59.226,131.73,66.863,177.575
		c6.411,38.432,15.282,47.358,44.312,47.358c12.345,0,32.56,0,54.075,0s41.73,0,54.068,0c29.044,0,37.908-8.939,44.319-47.358
		c7.637-45.845,20.044-93.223,66.87-177.575c15.684-28.288,25.413-60.527,25.413-95.199C386.677,89.892,301.303,4.525,196,4.525z"/>
	<polyline fill="none" stroke="#1CE9F9" stroke-width="4" stroke-linejoin="round" stroke-miterlimit="10" points="66.549,171.583 
		47.25,197 196.25,350 344.75,197 325.451,171.583 	"/>
</g>
</svg>
