<?xml version="1.0" encoding="utf-8"?>
<!-- Generator: Adobe Illustrator 19.1.0, SVG Export Plug-In . SVG Version: 6.00 Build 0)  -->
<svg version="1.1" id="Layer_1" xmlns="http://www.w3.org/2000/svg" xmlns:xlink="http://www.w3.org/1999/xlink" x="0px" y="0px"
	 viewBox="0 0 87.261 153.865" enable-background="new 0 0 87.261 153.865" xml:space="preserve">
<g>
	<g>
		<path d="M42.131,0C18.864,0,0,18.863,0,42.131c0,7.661,2.153,14.783,5.617,21.035c10.347,18.64,13.087,29.107,14.774,39.237
			c1.417,8.492,3.377,10.464,9.791,10.464c2.728,0,7.194,0,11.949,0s9.221,0,11.947,0c6.418,0,8.376-1.975,9.793-10.464
			c1.688-10.13,4.429-20.599,14.776-39.237c3.465-6.251,5.615-13.374,5.615-21.035C84.263,18.863,65.398,0,42.131,0z"/>
		<path d="M57.185,115.917H27.076c-1.246,0-2.258,1.01-2.258,2.258v1.505c0,1.248,1.012,2.258,2.258,2.258h30.108
			c1.246,0,2.258-1.01,2.258-2.258v-1.505C59.443,116.927,58.431,115.917,57.185,115.917z"/>
		<path d="M57.185,124.95H27.076c-1.246,0-2.258,1.01-2.258,2.258v1.505c0,1.248,1.012,2.258,2.258,2.258h30.108
			c1.246,0,2.258-1.01,2.258-2.258v-1.505C59.443,125.96,58.431,124.95,57.185,124.95z"/>
		<path d="M57.185,133.982H27.076c-1.246,0-2.258,1.01-2.258,2.258v1.505c0,1.248,1.012,2.258,2.258,2.258h30.108
			c1.246,0,2.258-1.01,2.258-2.258v-1.505C59.443,134.993,58.431,133.982,57.185,133.982z"/>
		<path d="M30.84,143.015h22.581c0,4.516-6.022,7.527-11.291,7.527S30.84,147.531,30.84,143.015z"/>
	</g>
	<g>
		<path fill="#1CE9F9" d="M20.093,37.239v2.191h2.191l3.171,15.305h-3.171v4.371h3.975l0.396,2.191h2.296
			c0.501-2.494,2.716-4.371,5.35-4.371c2.646,0,4.849,1.877,5.35,4.371h4.593c0.501-2.494,2.716-4.371,5.35-4.371
			c2.646,0,4.849,1.877,5.35,4.371h2.296l0.396-2.191h3.975v-4.371h-3.171l3.171-15.305h2.191v-2.191H20.093L20.093,37.239z"/>
		<circle fill="#1CE9F9" cx="34.29" cy="62.382" r="3.275"/>
		<circle fill="#1CE9F9" cx="49.595" cy="62.382" r="3.275"/>
		<path fill="#1CE9F9" d="M55.482,29.371c-0.793-0.594-1.702-0.874-2.599-0.874c0-2.867-1.877-5.49-4.744-6.294
			c-1.679-0.478-3.404-0.268-4.849,0.478c-1.795-0.793-3.893-0.979-5.945-0.396c-3.077,0.874-5.315,3.322-6.05,6.224
			c-1.002-0.07-2.005,0.221-2.879,0.851c-1.142,0.851-1.748,2.168-1.725,3.497h30.551C57.253,31.539,56.636,30.222,55.482,29.371z"
			/>
	</g>
</g>
</svg>
