<?xml version="1.0" encoding="utf-8"?>
<!-- Generator: Adobe Illustrator 19.1.0, SVG Export Plug-In . SVG Version: 6.00 Build 0)  -->
<svg version="1.1" id="Layer_1" xmlns="http://www.w3.org/2000/svg" xmlns:xlink="http://www.w3.org/1999/xlink" x="0px" y="0px"
	 viewBox="0 0 64 64" enable-background="new 0 0 64 64" xml:space="preserve">
<g>
	<path fill="#3DE3F4" d="M2.746,23.218v2.92h2.92l4.225,20.397H5.667v5.825h5.297l0.528,2.92h3.06
		c0.668-3.324,3.62-5.825,7.13-5.825c3.526,0,6.462,2.501,7.13,5.825h6.121c0.668-3.324,3.62-5.825,7.13-5.825
		c3.526,0,6.462,2.501,7.13,5.825h3.06l0.528-2.92h5.297v-5.825h-4.225l4.225-20.397H61v-2.92L2.746,23.218L2.746,23.218z"/>
	<circle fill="#3DE3F4" cx="21.667" cy="56.726" r="4.365"/>
	<circle fill="#3DE3F4" cx="42.064" cy="56.726" r="4.365"/>
	<path fill="#3DE3F4" d="M49.908,12.732c-1.056-0.792-2.268-1.165-3.464-1.165c0-3.821-2.501-7.317-6.322-8.389
		c-2.237-0.637-4.536-0.357-6.462,0.637c-2.392-1.056-5.188-1.305-7.923-0.528c-4.101,1.165-7.084,4.427-8.062,8.295
		c-1.336-0.093-2.672,0.295-3.837,1.134c-1.522,1.134-2.33,2.889-2.299,4.66h40.716C52.27,15.622,51.446,13.866,49.908,12.732z"/>
</g>
</svg>
