<?xml version="1.0" encoding="utf-8"?>
<!-- Generator: Adobe Illustrator 19.1.0, SVG Export Plug-In . SVG Version: 6.00 Build 0)  -->
<svg version="1.1" id="Layer_1" xmlns="http://www.w3.org/2000/svg" xmlns:xlink="http://www.w3.org/1999/xlink" x="0px" y="0px"
	 viewBox="0 0 800 365" enable-background="new 0 0 800 365" xml:space="preserve">
<line fill="none" stroke="#1CE9F9" stroke-miterlimit="10" x1="29.737" y1="243" x2="829" y2="243"/>
<g opacity="0.8">
	<path fill="#FFFFFF" d="M0,21.689c-39.963,0-72.366,32.4-72.366,72.366c0,13.159,3.698,25.392,9.648,36.131
		c17.772,32.017,22.478,49.996,25.377,67.396c2.433,14.586,5.8,17.974,16.818,17.974c4.685,0,12.358,0,20.523,0s15.838,0,20.521,0
		c11.023,0,14.387-3.393,16.821-17.974c2.899-17.4,7.607-35.381,25.38-67.396c5.952-10.736,9.645-22.972,9.645-36.131
		C72.369,54.089,39.966,21.689,0,21.689z"/>
	<path fill="#FFFFFF" d="M25.858,220.795h-51.716c-2.141,0-3.879,1.735-3.879,3.879v2.586c0,2.144,1.738,3.879,3.879,3.879h51.716
		c2.141,0,3.879-1.735,3.879-3.879v-2.586C29.737,222.53,27.999,220.795,25.858,220.795z"/>
	<path fill="#FFFFFF" d="M25.858,236.31h-51.716c-2.141,0-3.879,1.735-3.879,3.879v2.586c0,2.144,1.738,3.879,3.879,3.879h51.716
		c2.141,0,3.879-1.735,3.879-3.879v-2.586C29.737,238.045,27.999,236.31,25.858,236.31z"/>
	<path fill="#FFFFFF" d="M25.858,251.825h-51.716c-2.141,0-3.879,1.735-3.879,3.879v2.586c0,2.144,1.738,3.879,3.879,3.879h51.716
		c2.141,0,3.879-1.735,3.879-3.879v-2.586C29.737,253.56,27.999,251.825,25.858,251.825z"/>
	<path fill="#FFFFFF" d="M-19.393,267.34h38.787c0,7.757-10.343,12.929-19.393,12.929S-19.393,275.097-19.393,267.34z"/>
</g>
<g opacity="0.5">
	<path fill="none" stroke="#0FFFFF" stroke-miterlimit="10" d="M0,21.689c-39.963,0-72.366,32.4-72.366,72.366
		c0,13.159,3.698,25.392,9.648,36.131c17.772,32.017,22.478,49.996,25.377,67.396c2.433,14.586,5.8,17.974,16.818,17.974
		c4.685,0,12.358,0,20.523,0s15.838,0,20.521,0c11.023,0,14.387-3.393,16.821-17.974c2.899-17.4,7.607-35.381,25.38-67.396
		c5.952-10.736,9.645-22.972,9.645-36.131C72.369,54.089,39.966,21.689,0,21.689z"/>
	<path fill="none" stroke="#0FFFFF" stroke-miterlimit="10" d="M25.858,220.795h-51.716c-2.141,0-3.879,1.735-3.879,3.879v2.586
		c0,2.144,1.738,3.879,3.879,3.879h51.716c2.141,0,3.879-1.735,3.879-3.879v-2.586C29.737,222.53,27.999,220.795,25.858,220.795z"/>
	<path fill="none" stroke="#0FFFFF" stroke-miterlimit="10" d="M25.858,236.31h-51.716c-2.141,0-3.879,1.735-3.879,3.879v2.586
		c0,2.144,1.738,3.879,3.879,3.879h51.716c2.141,0,3.879-1.735,3.879-3.879v-2.586C29.737,238.045,27.999,236.31,25.858,236.31z"/>
	<path fill="none" stroke="#0FFFFF" stroke-miterlimit="10" d="M25.858,251.825h-51.716c-2.141,0-3.879,1.735-3.879,3.879v2.586
		c0,2.144,1.738,3.879,3.879,3.879h51.716c2.141,0,3.879-1.735,3.879-3.879v-2.586C29.737,253.56,27.999,251.825,25.858,251.825z"/>
	<path fill="none" stroke="#0FFFFF" stroke-miterlimit="10" d="M-19.393,267.34h38.787c0,7.757-10.343,12.929-19.393,12.929
		S-19.393,275.097-19.393,267.34z"/>
</g>
<g>
	<text transform="matrix(1 0 0 1 131.7733 202.7998)" fill="#1CE9F9" font-family="'ProximaNovaS-Thin'" font-size="106.4632px">you won!</text>
</g>
<g>
	<text transform="matrix(1 0 0 1 133.0849 228.9344)"><tspan x="0" y="0" fill="#FFFFFF" font-family="'ProximaNovaS-Light'" font-size="26px">congratulations..</tspan><tspan x="223.597" y="0" fill="#FFFFFF" font-family="'ProximaNovaS-Regular'" font-size="26px"> </tspan><tspan x="230.331" y="0" fill="#1CE9F9" font-family="'ProximaNovaS-Semibold'" font-size="26px">you are an energy expert!</tspan></text>
</g>
</svg>
