<?xml version="1.0" encoding="utf-8"?>
<!-- Generator: Adobe Illustrator 19.1.0, SVG Export Plug-In . SVG Version: 6.00 Build 0)  -->
<svg version="1.1" id="Layer_1" xmlns="http://www.w3.org/2000/svg" xmlns:xlink="http://www.w3.org/1999/xlink" x="0px" y="0px"
	 viewBox="0 0 87.261 153.865" enable-background="new 0 0 87.261 153.865" xml:space="preserve">
<g>
	<g>
		<g>
			<path d="M30.182,112.367c-6.197,0-7.935-1.878-9.298-10.046c-1.864-11.187-4.995-21.679-14.831-39.397
				C2.369,56.272,0.5,49.277,0.5,42.131C0.5,19.176,19.175,0.5,42.131,0.5c11.12,0,21.574,4.33,29.438,12.193
				s12.193,18.317,12.193,29.438c0,7.15-1.868,14.146-5.553,20.793c-9.838,17.723-12.97,28.215-14.832,39.397
				c-1.362,8.168-3.101,10.046-9.299,10.046H30.182z"/>
			<path fill="#1CE9F9" d="M42.131,1c10.986,0,21.315,4.278,29.084,12.047c7.769,7.769,12.047,18.098,12.046,29.084
				c0,7.066-1.847,13.98-5.49,20.55C67.9,80.464,64.756,91.002,62.884,102.239c-1.396,8.365-3.229,9.629-8.806,9.629H42.131H30.182
				c-5.577,0-7.409-1.264-8.805-9.629c-1.872-11.238-5.015-21.776-14.886-39.558C2.848,56.105,1,49.19,1,42.131
				C1,19.451,19.451,1,42.131,1 M42.131,0C18.864,0,0,18.863,0,42.131c0,7.661,2.153,14.783,5.617,21.035
				c10.347,18.64,13.087,29.107,14.774,39.237c1.417,8.492,3.377,10.464,9.791,10.464c2.728,0,7.194,0,11.949,0s9.221,0,11.947,0
				c6.418,0,8.376-1.975,9.793-10.464c1.688-10.13,4.429-20.599,14.776-39.237c3.465-6.251,5.615-13.374,5.615-21.035
				C84.263,18.863,65.398,0,42.131,0L42.131,0z"/>
		</g>
		<g>
			<path d="M27.077,121.439c-0.97,0-1.758-0.788-1.758-1.758v-1.506c0-0.97,0.789-1.758,1.758-1.758h30.108
				c0.97,0,1.759,0.788,1.759,1.758v1.506c0,0.97-0.789,1.758-1.759,1.758H27.077z"/>
			<path fill="#1CE9F9" d="M57.185,116.917c0.694,0,1.258,0.564,1.258,1.258v1.505c0,0.694-0.564,1.258-1.258,1.258H27.076
				c-0.694,0-1.258-0.564-1.258-1.258v-1.505c0-0.694,0.564-1.258,1.258-1.258H57.185 M57.185,115.917H27.076
				c-1.246,0-2.258,1.01-2.258,2.258v1.505c0,1.248,1.012,2.258,2.258,2.258h30.108c1.246,0,2.258-1.01,2.258-2.258v-1.505
				C59.443,116.927,58.431,115.917,57.185,115.917L57.185,115.917z"/>
		</g>
		<g>
			<path d="M27.077,130.472c-0.97,0-1.758-0.789-1.758-1.759v-1.505c0-0.97,0.789-1.759,1.758-1.759h30.108
				c0.97,0,1.759,0.789,1.759,1.759v1.505c0,0.97-0.789,1.759-1.759,1.759H27.077z"/>
			<path fill="#1CE9F9" d="M57.185,125.95c0.694,0,1.258,0.564,1.258,1.258v1.505c0,0.694-0.564,1.258-1.258,1.258H27.076
				c-0.694,0-1.258-0.564-1.258-1.258v-1.505c0-0.694,0.564-1.258,1.258-1.258H57.185 M57.185,124.95H27.076
				c-1.246,0-2.258,1.01-2.258,2.258v1.505c0,1.248,1.012,2.258,2.258,2.258h30.108c1.246,0,2.258-1.01,2.258-2.258v-1.505
				C59.443,125.96,58.431,124.95,57.185,124.95L57.185,124.95z"/>
		</g>
		<g>
			<path d="M27.077,139.504c-0.97,0-1.758-0.788-1.758-1.758v-1.506c0-0.97,0.789-1.758,1.758-1.758h30.108
				c0.97,0,1.759,0.788,1.759,1.758v1.506c0,0.97-0.789,1.758-1.759,1.758H27.077z"/>
			<path fill="#1CE9F9" d="M57.185,134.982c0.694,0,1.258,0.564,1.258,1.258v1.505c0,0.694-0.564,1.258-1.258,1.258H27.076
				c-0.694,0-1.258-0.564-1.258-1.258v-1.505c0-0.694,0.564-1.258,1.258-1.258H57.185 M57.185,133.982H27.076
				c-1.246,0-2.258,1.01-2.258,2.258v1.505c0,1.248,1.012,2.258,2.258,2.258h30.108c1.246,0,2.258-1.01,2.258-2.258v-1.505
				C59.443,134.993,58.431,133.982,57.185,133.982L57.185,133.982z"/>
		</g>
		<g>
			<path d="M42.131,150.042c-4.896,0-10.328-2.655-10.763-6.527h21.525C52.458,147.387,47.026,150.042,42.131,150.042z"/>
			<path fill="#1CE9F9" d="M52.29,144.015c-0.857,3.223-5.746,5.527-10.159,5.527s-9.301-2.304-10.159-5.527H52.29 M53.421,143.015
				H30.84c0,4.516,6.022,7.527,11.291,7.527S53.421,147.531,53.421,143.015L53.421,143.015z"/>
		</g>
	</g>
	<path fill="#1CE9F9" d="M57.303,38.237l-3.275-26.576c-0.053-0.257-0.187-0.531-0.7-0.531c0,0-2.532-0.009-2.739-0.009
		c-0.206,0-0.357,0.149-0.388,0.415l-3.128,26.701h-2.867v1.326h-0.922V27.364c0-0.715-2.51-1.303-5.608-1.303
		c-3.098,0-5.608,0.588-5.608,1.303v2.783h-3.667v3.209h-4.907v7.27l35.95-0.005v-2.384L57.303,38.237L57.303,38.237z
		 M56.111,36.856l-3.233-2.86l2.596-2.297L56.111,36.856z M55.178,29.284l-2.289-1.983l1.847-1.6L55.178,29.284z M53.736,20.653
		l-1.621,1.225l-1.622-1.225l1.622-1.043L53.736,20.653z M50.755,17.53l1.36-1.733l1.36,1.733l-1.36,0.875L50.755,17.53z
		 M54.262,24.771l-2.147,1.86l-2.146-1.86l2.146-1.622L54.262,24.771z M54.225,21.555l0.261,2.116l-1.53-1.157L54.225,21.555z
		 M53.985,19.609l-0.934-0.601l0.796-0.513L53.985,19.609z M53.537,15.967l-0.777-0.99l0.566-0.721L53.537,15.967z M52.115,12.813
		l0.772,0.36l-0.772,0.983l-0.772-0.983L52.115,12.813z M50.903,14.253l0.568,0.723l-0.768,0.977L50.903,14.253z M50.404,18.51
		l0.774,0.498l-0.901,0.579L50.404,18.51z M50.044,21.584l1.23,0.93l-1.469,1.11L50.044,21.584z M49.556,25.754l1.785,1.547
		l-2.188,1.897L49.556,25.754z M52.115,27.972l3.053,2.645l-3.053,2.702l-3.053-2.702L52.115,27.972z M48.849,31.782l2.502,2.214
		l-3.08,2.726L48.849,31.782z M48.094,38.232l4.021-3.559l4.028,3.565h-8.05L48.094,38.232z"/>
	<path fill="#1CE9F9" d="M56.734,61.544c-0.005-0.025-0.016-0.039-0.021-0.063c-0.009-0.013-0.013-0.018-0.021-0.036h-0.004
		c-0.06-0.094-0.151-0.157-0.263-0.157c-0.109,0-0.202,0.062-0.265,0.157c-0.023,0.039-0.039,0.073-0.049,0.119
		c-0.644,1.567-1.458,2.265-2.698,2.265h-0.009c-1.247,0-2.062-0.703-2.706-2.285c-0.009-0.025-0.017-0.039-0.024-0.063
		c-0.009-0.013-0.016-0.018-0.019-0.036h-0.008c-0.058-0.094-0.151-0.157-0.263-0.157c-0.109,0-0.198,0.062-0.261,0.157
		c-0.023,0.039-0.039,0.073-0.047,0.119c-0.639,1.538-1.439,2.236-2.643,2.257c-1.213-0.021-2.013-0.719-2.65-2.277
		c-0.006-0.025-0.017-0.039-0.028-0.063c-0.004-0.015-0.012-0.018-0.018-0.036h-0.002c-0.063-0.095-0.158-0.158-0.267-0.158
		c-0.108,0-0.2,0.063-0.263,0.158c-0.019,0.039-0.036,0.073-0.049,0.119c-0.644,1.566-1.456,2.265-2.693,2.265h-0.009
		c-1.25,0-2.062-0.703-2.708-2.285c-0.007-0.025-0.021-0.039-0.032-0.063c-0.004-0.015-0.009-0.018-0.014-0.036h-0.002
		c-0.066-0.095-0.159-0.158-0.267-0.158c-0.108,0-0.198,0.063-0.263,0.158c-0.019,0.039-0.036,0.073-0.049,0.119
		c-0.632,1.53-1.43,2.226-2.625,2.253c-1.199-0.028-1.997-0.727-2.633-2.274c-0.007-0.025-0.016-0.039-0.026-0.063
		c-0.005-0.015-0.012-0.018-0.013-0.036h-0.006c-0.06-0.095-0.153-0.158-0.261-0.158c-0.112,0-0.206,0.063-0.265,0.158h-0.004
		c-0.023,0.039-0.037,0.073-0.046,0.119c-0.646,1.566-1.465,2.265-2.703,2.265h-0.005c-1.246,0-2.06-0.703-2.706-2.285
		c-0.009-0.025-0.018-0.039-0.028-0.063c-0.007-0.015-0.012-0.018-0.013-0.036h-0.011c-0.059-0.095-0.148-0.158-0.262-0.158
		c-0.105,0-0.2,0.063-0.263,0.158c-0.023,0.039-0.037,0.073-0.047,0.119c-0.646,1.566-1.464,2.265-2.701,2.265h0.025v2.208h35.872
		V63.83h0.046C58.196,63.83,57.383,63.128,56.734,61.544z"/>
	<rect x="23.5" y="43.781" fill="#1CE9F9" width="35.942" height="5.608"/>
	<path fill="#1CE9F9" d="M50.075,58.311c0.009-0.026,0.025-0.047,0.047-0.069c0.063-0.054,0.153-0.09,0.261-0.09
		c0.112,0,0.206,0.036,0.263,0.09h0.008c0.004,0.01,0.011,0.012,0.019,0.021c0.007,0.014,0.015,0.022,0.024,0.036
		c0.493,0.698,1.087,1.098,1.898,1.247v-8.263h-4.873v8.311C48.766,59.523,49.49,59.121,50.075,58.311z"/>
	<path fill="#1CE9F9" d="M32.314,58.242c0.063-0.054,0.154-0.09,0.262-0.09c0.112,0,0.206,0.036,0.263,0.09h0.007
		c0.004,0.01,0.011,0.012,0.02,0.021c0.007,0.014,0.015,0.022,0.024,0.036c0.493,0.698,1.087,1.098,1.898,1.247v-8.263h-4.873v8.311
		c1.042-0.072,1.767-0.474,2.352-1.284C32.276,58.285,32.291,58.264,32.314,58.242z"/>
</g>
</svg>
