<?xml version="1.0" encoding="utf-8"?>
<!-- Generator: Adobe Illustrator 19.1.0, SVG Export Plug-In . SVG Version: 6.00 Build 0)  -->
<svg version="1.1" id="Layer_1" xmlns="http://www.w3.org/2000/svg" xmlns:xlink="http://www.w3.org/1999/xlink" x="0px" y="0px"
	 viewBox="0 0 617.969 97.495" enable-background="new 0 0 617.969 97.495" xml:space="preserve">
<g>
	<g>
		<path fill="#1CE9F9" d="M50.375,85.612c-4.956,0-9.603-0.867-13.938-2.602c-4.337-1.734-8.115-4.17-11.337-7.31
			c-3.221-3.139-5.761-6.896-7.619-11.274c-1.858-4.377-2.788-9.169-2.788-14.372c0-5.204,0.93-9.993,2.788-14.372
			c1.858-4.377,4.398-8.135,7.619-11.274c3.222-3.139,7-5.576,11.337-7.311c4.336-1.734,8.982-2.602,13.938-2.602
			c5.451,0,10.324,0.95,14.619,2.85c4.294,1.901,8.218,4.584,11.771,8.054l-2.596,2.85c-2.885-3.056-6.389-5.492-10.51-7.311
			c-4.122-1.815-8.532-2.726-13.229-2.726c-4.369,0-8.469,0.784-12.303,2.351c-3.833,1.565-7.17,3.75-10.012,6.553
			c-2.844,2.803-5.07,6.164-6.677,10.078c-1.607,3.916-2.41,8.224-2.41,12.922c0,4.7,0.803,9.008,2.41,12.922
			c1.606,3.917,3.831,7.297,6.675,10.141c2.842,2.846,6.179,5.051,10.012,6.616c3.832,1.566,7.932,2.349,12.301,2.349
			c2.554,0,4.942-0.288,7.169-0.867c2.225-0.577,4.284-1.301,6.18-2.168c1.895-0.867,3.585-1.837,5.067-2.912
			c1.483-1.072,2.761-2.105,3.833-3.097V54.639h-25.15v-3.717h29.115v23.625c-3.14,3.316-6.959,5.99-11.46,8.021
			C60.678,84.597,55.744,85.612,50.375,85.612z"/>
		<path fill="#1CE9F9" d="M122.11,15.983l29.859,68.144h-4.461l-7.929-18.089h-39.275l-7.806,18.089h-4.584l29.858-68.144H122.11z
			 M120.003,20.568L101.791,62.32h36.302L120.003,20.568z"/>
		<path fill="#1CE9F9" d="M224.572,84.126V21.435l-27.257,62.691h-1.363l-27.257-62.691v62.691h-3.965V15.983h5.823l26.018,60.09
			l26.019-60.09h5.947v68.144H224.572z"/>
		<path fill="#1CE9F9" d="M249.846,84.126V15.983h43.859V19.7h-39.895v27.381h39.274v3.717h-39.274v29.611h39.895v3.717H249.846z"/>
		<path fill="#1CE9F9" d="M374.919,85.612c-5.214,0-9.93-0.929-14.149-2.787c-4.221-1.858-7.821-4.398-10.801-7.62
			c-2.979-3.221-5.254-6.979-6.825-11.274c-1.572-4.294-2.358-8.92-2.358-13.876s0.786-9.581,2.358-13.877
			c1.571-4.294,3.847-8.053,6.825-11.274c2.979-3.221,6.58-5.761,10.801-7.619c4.22-1.858,8.936-2.788,14.149-2.788
			c5.211,0,9.908,0.93,14.087,2.788c4.178,1.858,7.736,4.398,10.675,7.619c2.937,3.222,5.212,6.98,6.826,11.274
			c1.614,4.296,2.422,8.921,2.422,13.877s-0.808,9.582-2.422,13.876c-1.614,4.296-3.89,8.054-6.826,11.274
			c-2.938,3.222-6.497,5.762-10.675,7.62C384.828,84.684,380.13,85.612,374.919,85.612z M374.919,81.896
			c4.45,0,8.51-0.801,12.179-2.406c3.666-1.603,6.799-3.825,9.396-6.663c2.596-2.838,4.594-6.212,5.995-10.121
			c1.402-3.908,2.103-8.125,2.103-12.65c0-4.607-0.7-8.844-2.103-12.711c-1.401-3.868-3.399-7.221-5.995-10.06
			c-2.598-2.838-5.73-5.06-9.396-6.665c-3.669-1.603-7.729-2.406-12.179-2.406c-4.617,0-8.76,0.804-12.427,2.406
			c-3.668,1.605-6.779,3.827-9.335,6.665c-2.555,2.839-4.533,6.191-5.936,10.06c-1.401,3.867-2.1,8.104-2.1,12.711
			c0,4.525,0.698,8.742,2.1,12.65c1.402,3.909,3.381,7.283,5.936,10.121c2.556,2.838,5.667,5.061,9.335,6.663
			C366.16,81.095,370.302,81.896,374.919,81.896z"/>
		<path fill="#1CE9F9" d="M448.203,84.126l-29.858-68.144h4.584l27.505,63.436l27.629-63.436h4.337L452.54,84.126H448.203z"/>
		<path fill="#1CE9F9" d="M495.159,84.126V15.983h43.859V19.7h-39.895v27.381h39.274v3.717h-39.274v29.611h39.895v3.717H495.159z"/>
		<path fill="#1CE9F9" d="M599.175,84.126l-21.449-29.115h-16.654v29.115h-3.965V15.983h24.847c3.396,0,6.418,0.496,9.068,1.487
			c2.649,0.991,4.864,2.354,6.646,4.089c1.781,1.734,3.147,3.778,4.101,6.133c0.952,2.354,1.428,4.937,1.428,7.743
			c0,5.699-1.802,10.367-5.404,14c-3.603,3.636-8.718,5.494-15.342,5.576l21.93,29.115H599.175z M581.886,51.293
			c5.699,0,9.952-1.475,12.761-4.425c2.808-2.95,4.213-6.761,4.213-11.434c0-4.669-1.446-8.46-4.336-11.369
			c-2.893-2.91-7.105-4.365-12.638-4.365h-20.814v31.593H581.886z"/>
	</g>
</g>
</svg>
