<?xml version="1.0" encoding="utf-8"?>
<!-- Generator: Adobe Illustrator 19.1.0, SVG Export Plug-In . SVG Version: 6.00 Build 0)  -->
<svg version="1.1" id="Layer_1" xmlns="http://www.w3.org/2000/svg" xmlns:xlink="http://www.w3.org/1999/xlink" x="0px" y="0px"
	 viewBox="0 0 87.261 153.865" enable-background="new 0 0 87.261 153.865" xml:space="preserve">
<g>
	<g>
		<path d="M30.183,112.367c-6.198,0-7.936-1.878-9.299-10.046c-1.863-11.188-4.994-21.68-14.829-39.397
			C2.369,56.273,0.5,49.277,0.5,42.131C0.5,19.176,19.176,0.5,42.131,0.5c11.12,0,21.574,4.33,29.438,12.193
			s12.193,18.318,12.193,29.438c0,7.15-1.868,14.146-5.553,20.793c-9.838,17.723-12.969,28.214-14.832,39.397
			c-1.362,8.168-3.101,10.046-9.299,10.046H30.183z"/>
		<path fill="#1CE9F9" d="M42.131,1c10.986,0,21.315,4.278,29.084,12.047c7.769,7.769,12.047,18.098,12.046,29.084
			c0,7.066-1.847,13.98-5.49,20.55C67.9,80.464,64.756,91.002,62.884,102.239c-1.396,8.365-3.229,9.629-8.806,9.629H42.131H30.182
			c-5.577,0-7.409-1.264-8.805-9.629c-1.872-11.238-5.015-21.776-14.886-39.558C2.848,56.105,1,49.19,1,42.131
			C1,19.451,19.451,1,42.131,1 M42.131,0C18.864,0,0,18.863,0,42.131c0,7.661,2.153,14.783,5.617,21.035
			c10.347,18.64,13.087,29.107,14.774,39.237c1.417,8.492,3.377,10.464,9.791,10.464c2.728,0,7.194,0,11.949,0s9.221,0,11.947,0
			c6.418,0,8.376-1.975,9.793-10.464c1.688-10.13,4.429-20.599,14.776-39.237c3.465-6.251,5.615-13.374,5.615-21.035
			C84.263,18.863,65.398,0,42.131,0L42.131,0z"/>
	</g>
	<g>
		<path d="M27.076,121.439c-0.97,0-1.758-0.789-1.758-1.759v-1.505c0-0.97,0.788-1.759,1.758-1.759h30.108
			c0.97,0,1.759,0.789,1.759,1.759v1.505c0,0.97-0.789,1.759-1.759,1.759H27.076z"/>
		<path fill="#1CE9F9" d="M57.185,116.917c0.694,0,1.258,0.564,1.258,1.258v1.505c0,0.694-0.564,1.258-1.258,1.258H27.076
			c-0.694,0-1.258-0.564-1.258-1.258v-1.505c0-0.694,0.564-1.258,1.258-1.258H57.185 M57.185,115.917H27.076
			c-1.246,0-2.258,1.01-2.258,2.258v1.505c0,1.248,1.012,2.258,2.258,2.258h30.108c1.246,0,2.258-1.01,2.258-2.258v-1.505
			C59.443,116.927,58.431,115.917,57.185,115.917L57.185,115.917z"/>
	</g>
	<g>
		<path d="M27.076,130.472c-0.97,0-1.758-0.788-1.758-1.758v-1.506c0-0.97,0.788-1.758,1.758-1.758h30.108
			c0.97,0,1.759,0.788,1.759,1.758v1.506c0,0.97-0.789,1.758-1.759,1.758H27.076z"/>
		<path fill="#1CE9F9" d="M57.185,125.95c0.694,0,1.258,0.564,1.258,1.258v1.505c0,0.694-0.564,1.258-1.258,1.258H27.076
			c-0.694,0-1.258-0.564-1.258-1.258v-1.505c0-0.694,0.564-1.258,1.258-1.258H57.185 M57.185,124.95H27.076
			c-1.246,0-2.258,1.01-2.258,2.258v1.505c0,1.248,1.012,2.258,2.258,2.258h30.108c1.246,0,2.258-1.01,2.258-2.258v-1.505
			C59.443,125.96,58.431,124.95,57.185,124.95L57.185,124.95z"/>
	</g>
	<g>
		<path d="M27.076,139.504c-0.97,0-1.758-0.788-1.758-1.758v-1.506c0-0.97,0.788-1.758,1.758-1.758h30.108
			c0.97,0,1.759,0.788,1.759,1.758v1.506c0,0.97-0.789,1.758-1.759,1.758H27.076z"/>
		<path fill="#1CE9F9" d="M57.185,134.982c0.694,0,1.258,0.564,1.258,1.258v1.505c0,0.694-0.564,1.258-1.258,1.258H27.076
			c-0.694,0-1.258-0.564-1.258-1.258v-1.505c0-0.694,0.564-1.258,1.258-1.258H57.185 M57.185,133.982H27.076
			c-1.246,0-2.258,1.01-2.258,2.258v1.505c0,1.248,1.012,2.258,2.258,2.258h30.108c1.246,0,2.258-1.01,2.258-2.258v-1.505
			C59.443,134.993,58.431,133.982,57.185,133.982L57.185,133.982z"/>
	</g>
	<g>
		<path d="M42.131,150.042c-4.896,0-10.328-2.655-10.763-6.527h21.524C52.458,147.387,47.026,150.042,42.131,150.042z"/>
		<path fill="#1CE9F9" d="M52.29,144.015c-0.857,3.223-5.746,5.527-10.159,5.527s-9.301-2.304-10.159-5.527H52.29 M53.421,143.015
			H30.84c0,4.516,6.022,7.527,11.291,7.527C47.4,150.542,53.421,147.531,53.421,143.015L53.421,143.015z"/>
	</g>
</g>
<path fill="#1CE9F9" d="M50.58,40.353l-0.911-13.435h-2.034l-0.673,9.917h-1.361v-3.56H34.413v7.246
	c-4.225,0.611-8.311,1.649-12.206,3.086V65.46h9.299c0-2.906,2.906-4.65,2.906-8.137c0-3.487-2.325-5.231-2.325-8.137h-1.744
	l3.488-4.65l3.487,4.65h-1.744c0,2.906,2.325,4.65,2.325,8.137c0,3.487-2.906,5.231-2.906,8.137h5.812
	c0-2.906,2.906-4.65,2.906-8.137c0-3.487-2.325-5.231-2.325-8.137h-1.744l3.487-4.65l3.487,4.65h-1.743
	c0,2.906,2.325,4.65,2.325,8.137c0,3.487-2.906,5.231-2.906,8.137h5.813c0-2.906,2.906-4.65,2.906-8.137
	c0-3.487-2.325-5.231-2.325-8.137h-1.744l3.488-4.65l3.487,4.65h-1.744c0,2.906,2.325,4.65,2.325,8.137
	c0,3.487-2.906,5.231-2.906,8.137h10.462V43.607C59.771,42.026,55.257,40.928,50.58,40.353z"/>
<path fill="#1CE9F9" d="M39.244,23.646h5.085c0.881,0,3.56,0,3.56,0.508h1.526c0-2.034-2.82-2.034-5.086-2.034h-5.085
	c-0.927,0-2.774-0.311-3.306-0.508C36.026,21.645,36.701,23.646,39.244,23.646z"/>
</svg>
