<?xml version="1.0" encoding="utf-8"?>
<!-- Generator: Adobe Illustrator 19.1.0, SVG Export Plug-In . SVG Version: 6.00 Build 0)  -->
<svg version="1.1" id="Layer_1" xmlns="http://www.w3.org/2000/svg" xmlns:xlink="http://www.w3.org/1999/xlink" x="0px" y="0px"
	 viewBox="0 0 64 64" enable-background="new 0 0 64 64" xml:space="preserve">
<g>
	<path fill="#3DE3F4" d="M42.626,26.071l-1.31-19.318h-2.925l-0.968,14.259h-1.957v-5.119H19.379v10.419
		c-6.075,0.879-11.95,2.371-17.55,4.438v31.421H15.2c0-4.178,4.178-6.686,4.178-11.7c0.001-5.014-3.343-7.521-3.343-11.7h-2.507
		l5.015-6.686l5.014,6.686H21.05c0,4.178,3.343,6.686,3.343,11.7s-4.179,7.521-4.178,11.7h8.357c0-4.178,4.178-6.686,4.178-11.7
		s-3.343-7.521-3.343-11.7H26.9l5.014-6.686l5.014,6.686h-2.507c0,4.178,3.343,6.686,3.343,11.7s-4.179,7.521-4.179,11.7h8.358
		c0-4.178,4.178-6.686,4.178-11.7s-3.343-7.521-3.343-11.7h-2.507l5.015-6.686l5.014,6.686h-2.507c0,4.178,3.343,6.686,3.343,11.7
		s-4.179,7.522-4.179,11.7H62V30.75C55.841,28.477,49.35,26.898,42.626,26.071z"/>
	<path fill="#3DE3F4" d="M26.326,4.925h7.312c1.267,0,5.119,0,5.119,0.731h2.194c0-2.925-4.054-2.925-7.313-2.925h-7.312
		c-1.333,0-3.989-0.447-4.753-0.731C21.699,2.048,22.669,4.925,26.326,4.925z"/>
</g>
</svg>
