<?xml version="1.0" encoding="utf-8"?>
<!-- Generator: Adobe Illustrator 19.1.0, SVG Export Plug-In . SVG Version: 6.00 Build 0)  -->
<svg version="1.1" id="Layer_1" xmlns="http://www.w3.org/2000/svg" xmlns:xlink="http://www.w3.org/1999/xlink" x="0px" y="0px"
	 viewBox="0 0 87.261 153.865" enable-background="new 0 0 87.261 153.865" xml:space="preserve">
<g>
	<g>
		<path d="M42.131,0C18.864,0,0,18.863,0,42.131c0,7.661,2.153,14.783,5.617,21.035c10.347,18.64,13.087,29.107,14.774,39.237
			c1.417,8.492,3.377,10.464,9.791,10.464c2.728,0,7.194,0,11.949,0s9.221,0,11.947,0c6.418,0,8.376-1.975,9.793-10.464
			c1.688-10.13,4.429-20.599,14.776-39.237c3.465-6.251,5.615-13.374,5.615-21.035C84.263,18.863,65.398,0,42.131,0z"/>
		<path d="M57.185,115.917H27.076c-1.246,0-2.258,1.01-2.258,2.258v1.505c0,1.248,1.012,2.258,2.258,2.258h30.108
			c1.246,0,2.258-1.01,2.258-2.258v-1.505C59.443,116.927,58.431,115.917,57.185,115.917z"/>
		<path d="M57.185,124.95H27.076c-1.246,0-2.258,1.01-2.258,2.258v1.505c0,1.248,1.012,2.258,2.258,2.258h30.108
			c1.246,0,2.258-1.01,2.258-2.258v-1.505C59.443,125.96,58.431,124.95,57.185,124.95z"/>
		<path d="M57.185,133.982H27.076c-1.246,0-2.258,1.01-2.258,2.258v1.505c0,1.248,1.012,2.258,2.258,2.258h30.108
			c1.246,0,2.258-1.01,2.258-2.258v-1.505C59.443,134.993,58.431,133.982,57.185,133.982z"/>
		<path d="M30.84,143.015h22.581c0,4.516-6.022,7.527-11.291,7.527S30.84,147.531,30.84,143.015z"/>
	</g>
	<path fill="#1CE9F9" d="M50.58,40.353l-0.911-13.435h-2.034l-0.673,9.917h-1.361v-3.56H34.413v7.246
		c-4.225,0.611-8.311,1.649-12.206,3.086V65.46h9.299c0-2.906,2.906-4.65,2.906-8.137c0-3.487-2.325-5.231-2.325-8.137h-1.744
		l3.488-4.65l3.487,4.65h-1.744c0,2.906,2.325,4.65,2.325,8.137c0,3.487-2.906,5.231-2.906,8.137h5.812
		c0-2.906,2.906-4.65,2.906-8.137c0-3.487-2.325-5.231-2.325-8.137h-1.744l3.487-4.65l3.487,4.65h-1.743
		c0,2.906,2.325,4.65,2.325,8.137c0,3.487-2.906,5.231-2.906,8.137h5.813c0-2.906,2.906-4.65,2.906-8.137
		c0-3.487-2.325-5.231-2.325-8.137h-1.744l3.488-4.65l3.487,4.65h-1.744c0,2.906,2.325,4.65,2.325,8.137
		c0,3.487-2.906,5.231-2.906,8.137h10.462V43.607C59.771,42.026,55.257,40.928,50.58,40.353z"/>
	<path fill="#1CE9F9" d="M39.244,23.646h5.085c0.881,0,3.56,0,3.56,0.508h1.526c0-2.034-2.82-2.034-5.086-2.034h-5.085
		c-0.927,0-2.774-0.311-3.306-0.508C36.026,21.645,36.701,23.646,39.244,23.646z"/>
</g>
</svg>
