<?xml version="1.0" encoding="utf-8"?>
<!-- Generator: Adobe Illustrator 19.1.0, SVG Export Plug-In . SVG Version: 6.00 Build 0)  -->
<svg version="1.1" id="Layer_1" xmlns="http://www.w3.org/2000/svg" xmlns:xlink="http://www.w3.org/1999/xlink" x="0px" y="0px"
	 viewBox="0 0 41.525 40.5" enable-background="new 0 0 41.525 40.5" xml:space="preserve">
<g opacity="0.6">
	<path fill-rule="evenodd" clip-rule="evenodd" fill="#FFFFFF" d="M20.761,1.557c-10.583,0-19.165,8.581-19.165,19.168
		c0,8.467,5.491,15.651,13.108,18.186c0.958,0.176,1.308-0.416,1.308-0.924c0-0.455-0.017-1.66-0.026-3.26
		c-5.331,1.158-6.456-2.569-6.456-2.569c-0.872-2.214-2.128-2.804-2.128-2.804c-1.74-1.189,0.132-1.165,0.132-1.165
		c1.923,0.136,2.936,1.975,2.936,1.975c1.71,2.929,4.486,2.083,5.578,1.593c0.174-1.239,0.669-2.083,1.217-2.562
		c-4.256-0.484-8.73-2.128-8.73-9.473c0-2.092,0.747-3.803,1.973-5.143c-0.197-0.485-0.855-2.434,0.188-5.072
		c0,0,1.609-0.515,5.271,1.965c1.529-0.425,3.168-0.638,4.798-0.645c1.628,0.007,3.267,0.22,4.798,0.645
		c3.659-2.48,5.265-1.965,5.265-1.965c1.046,2.639,0.388,4.587,0.191,5.072c1.228,1.34,1.97,3.051,1.97,5.143
		c0,7.363-4.481,8.983-8.751,9.458c0.688,0.592,1.301,1.762,1.301,3.549c0,2.562-0.024,4.629-0.024,5.258
		c0,0.513,0.345,1.109,1.318,0.922c7.609-2.539,13.096-9.719,13.096-18.184C39.929,10.138,31.347,1.557,20.761,1.557z"/>
</g>
</svg>
