<?xml version="1.0" encoding="utf-8"?>
<!-- Generator: Adobe Illustrator 19.1.0, SVG Export Plug-In . SVG Version: 6.00 Build 0)  -->
<svg version="1.1" id="Layer_1" xmlns="http://www.w3.org/2000/svg" xmlns:xlink="http://www.w3.org/1999/xlink" x="0px" y="0px"
	 viewBox="0 0 64 64" enable-background="new 0 0 64 64" xml:space="preserve">
<path fill="#3DE3F4" d="M36.728,60.579L26.205,3.348c-0.019-0.106-0.092-0.181-0.176-0.181h-5.697c-0.048,0-0.094,0.025-0.128,0.07
	c-0.033,0.043-0.053,0.104-0.053,0.168v57.231c0,0.062,0.02,0.123,0.053,0.167c0.034,0.045,0.081,0.07,0.128,0.07h16.22
	c0.055,0,0.108-0.033,0.142-0.089C36.729,60.723,36.741,60.65,36.728,60.579z"/>
<path fill="#3DE3F4" d="M37.917,51.994c0.47,0.21,0.977,0.325,1.522,0.325h0.046h-0.003c0.555-0.008,1.069-0.133,1.541-0.354
	c0.472-0.221,0.901-0.541,1.266-0.938c0.162-0.176,0.341-0.321,0.529-0.44c0.724-0.69,1.539-1.267,2.435-1.687
	c1.084-0.51,2.279-0.798,3.521-0.813h-0.007c0.042,0,0.08-0.001,0.114-0.001c1.222,0,2.4,0.265,3.475,0.747
	c1.076,0.481,2.049,1.177,2.88,2.038l0.04,0.042l0.174,0.189c0.366,0.379,0.794,0.683,1.26,0.892
	c0.469,0.21,0.977,0.325,1.522,0.325h0.046h-0.003c0.553-0.008,1.068-0.133,1.54-0.354c0.472-0.222,0.903-0.542,1.268-0.938
	c0.002-0.001,0.003-0.003,0.004-0.004v-5.715c-0.001,0.002-0.002,0.002-0.004,0.004c-0.364,0.396-0.795,0.716-1.268,0.938
	c-0.472,0.221-0.985,0.347-1.538,0.353H58.23c-0.543,0-1.051-0.116-1.52-0.325c-0.467-0.208-0.895-0.512-1.261-0.892l-0.173-0.188
	l-0.039-0.042c-0.831-0.862-1.805-1.558-2.882-2.039c-1.075-0.482-2.254-0.747-3.475-0.747c-0.034,0-0.072,0.001-0.113,0.001
	l0.008-0.001c-1.242,0.015-2.437,0.303-3.521,0.813c-0.896,0.421-1.712,0.998-2.437,1.69c-0.187,0.12-0.364,0.264-0.526,0.438
	c-0.364,0.397-0.795,0.716-1.266,0.938c-0.472,0.221-0.985,0.347-1.539,0.353h-0.048c-0.543,0-1.05-0.116-1.52-0.325
	c-0.466-0.208-0.894-0.512-1.26-0.892l-0.17-0.185l-0.043-0.045c-0.134-0.14-0.278-0.268-0.42-0.399l1.562,7.066
	C37.694,51.886,37.804,51.943,37.917,51.994z"/>
<path fill="#3DE3F4" d="M61.084,53.835c-0.364,0.397-0.795,0.715-1.268,0.937c-0.472,0.222-0.987,0.348-1.54,0.355h0.003h-0.046
	c-0.544,0-1.052-0.115-1.522-0.326c-0.467-0.208-0.894-0.512-1.26-0.892l-0.174-0.187l-0.04-0.043
	c-0.83-0.861-1.805-1.557-2.88-2.038c-1.075-0.482-2.253-0.747-3.475-0.747c-0.035,0-0.072,0.001-0.114,0.001h0.007
	c-1.242,0.014-2.437,0.303-3.521,0.812c-0.896,0.421-1.711,0.998-2.435,1.688c-0.188,0.12-0.367,0.264-0.529,0.44
	c-0.364,0.397-0.794,0.716-1.266,0.937c-0.473,0.222-0.986,0.348-1.541,0.355h0.003h-0.046c-0.544,0-1.052-0.115-1.522-0.326
	c-0.113-0.05-0.223-0.107-0.333-0.168l1.39,6.288c0.154,0.009,0.308,0.013,0.464,0.013c0.034,0,0.067,0,0.102-0.001h0.003
	c1.242-0.016,2.434-0.304,3.519-0.814c0.896-0.421,1.711-0.997,2.434-1.687c0.188-0.119,0.367-0.264,0.529-0.44
	c0.365-0.396,0.794-0.716,1.266-0.937c0.473-0.222,0.986-0.347,1.539-0.353l0.008-0.001h0.042c0.542,0,1.05,0.117,1.518,0.326
	c0.466,0.208,0.893,0.512,1.257,0.89l0.174,0.189l0.039,0.042c0.832,0.863,1.807,1.559,2.883,2.041
	c1.076,0.481,2.256,0.746,3.478,0.746c0.034,0,0.067,0,0.102-0.001h0.003c0.955-0.012,1.88-0.187,2.75-0.497v-6.604
	C61.086,53.833,61.085,53.834,61.084,53.835z"/>
<polygon fill="#3DE3F4" points="2.513,51.716 2.513,56.115 2.513,56.407 2.513,60.806 17.119,60.806 17.119,56.407 17.119,56.115 
	17.119,51.716 "/>
<polygon fill="#3DE3F4" points="2.513,40.237 2.513,44.635 2.513,44.928 2.513,49.327 17.119,49.327 17.119,44.928 17.119,44.635 
	17.119,40.237 "/>
<polygon fill="#3DE3F4" points="2.513,28.757 2.513,33.155 2.513,33.449 2.513,37.846 17.119,37.846 17.119,33.449 17.119,33.155 
	17.119,28.757 "/>
</svg>
