<?xml version="1.0" encoding="utf-8"?>
<!-- Generator: Adobe Illustrator 19.1.0, SVG Export Plug-In . SVG Version: 6.00 Build 0)  -->
<svg version="1.1" id="Layer_1" xmlns="http://www.w3.org/2000/svg" xmlns:xlink="http://www.w3.org/1999/xlink" x="0px" y="0px"
	 viewBox="0 0 87.261 153.865" enable-background="new 0 0 87.261 153.865" xml:space="preserve">
<g>
	<g>
		<path d="M30.183,112.367c-6.198,0-7.936-1.878-9.299-10.046c-1.863-11.188-4.994-21.68-14.829-39.397
			C2.369,56.273,0.5,49.277,0.5,42.131C0.5,19.176,19.176,0.5,42.131,0.5c11.12,0,21.574,4.33,29.438,12.193
			s12.193,18.318,12.193,29.438c0,7.15-1.868,14.146-5.553,20.793c-9.838,17.723-12.969,28.214-14.832,39.397
			c-1.362,8.168-3.101,10.046-9.299,10.046H30.183z"/>
		<path fill="#1CE9F9" d="M42.131,1c10.986,0,21.315,4.278,29.084,12.047c7.769,7.769,12.047,18.098,12.046,29.084
			c0,7.066-1.847,13.98-5.49,20.55C67.9,80.464,64.756,91.002,62.884,102.239c-1.396,8.365-3.229,9.629-8.806,9.629H42.131H30.182
			c-5.577,0-7.409-1.264-8.805-9.629c-1.872-11.238-5.015-21.776-14.886-39.558C2.848,56.105,1,49.19,1,42.131
			C1,19.451,19.451,1,42.131,1 M42.131,0C18.864,0,0,18.863,0,42.131c0,7.661,2.153,14.783,5.617,21.035
			c10.347,18.64,13.087,29.107,14.774,39.237c1.417,8.492,3.377,10.464,9.791,10.464c2.728,0,7.194,0,11.949,0s9.221,0,11.947,0
			c6.418,0,8.376-1.975,9.793-10.464c1.688-10.13,4.429-20.599,14.776-39.237c3.465-6.251,5.615-13.374,5.615-21.035
			C84.263,18.863,65.398,0,42.131,0L42.131,0z"/>
	</g>
	<g>
		<path d="M27.076,121.439c-0.97,0-1.758-0.789-1.758-1.759v-1.505c0-0.97,0.788-1.759,1.758-1.759h30.108
			c0.97,0,1.759,0.789,1.759,1.759v1.505c0,0.97-0.789,1.759-1.759,1.759H27.076z"/>
		<path fill="#1CE9F9" d="M57.185,116.917c0.694,0,1.258,0.564,1.258,1.258v1.505c0,0.694-0.564,1.258-1.258,1.258H27.076
			c-0.694,0-1.258-0.564-1.258-1.258v-1.505c0-0.694,0.564-1.258,1.258-1.258H57.185 M57.185,115.917H27.076
			c-1.246,0-2.258,1.01-2.258,2.258v1.505c0,1.248,1.012,2.258,2.258,2.258h30.108c1.247,0,2.258-1.01,2.258-2.258v-1.505
			C59.443,116.927,58.431,115.917,57.185,115.917L57.185,115.917z"/>
	</g>
	<g>
		<path d="M27.076,130.472c-0.97,0-1.758-0.788-1.758-1.758v-1.506c0-0.97,0.788-1.758,1.758-1.758h30.108
			c0.97,0,1.759,0.788,1.759,1.758v1.506c0,0.97-0.789,1.758-1.759,1.758H27.076z"/>
		<path fill="#1CE9F9" d="M57.185,125.95c0.694,0,1.258,0.564,1.258,1.258v1.505c0,0.694-0.564,1.258-1.258,1.258H27.076
			c-0.694,0-1.258-0.564-1.258-1.258v-1.505c0-0.694,0.564-1.258,1.258-1.258H57.185 M57.185,124.95H27.076
			c-1.246,0-2.258,1.01-2.258,2.258v1.505c0,1.248,1.012,2.258,2.258,2.258h30.108c1.247,0,2.258-1.01,2.258-2.258v-1.505
			C59.443,125.96,58.431,124.95,57.185,124.95L57.185,124.95z"/>
	</g>
	<g>
		<path d="M27.076,139.504c-0.97,0-1.758-0.788-1.758-1.758v-1.506c0-0.97,0.788-1.758,1.758-1.758h30.108
			c0.97,0,1.759,0.788,1.759,1.758v1.506c0,0.97-0.789,1.758-1.759,1.758H27.076z"/>
		<path fill="#1CE9F9" d="M57.185,134.982c0.694,0,1.258,0.564,1.258,1.258v1.505c0,0.694-0.564,1.258-1.258,1.258H27.076
			c-0.694,0-1.258-0.564-1.258-1.258v-1.505c0-0.694,0.564-1.258,1.258-1.258H57.185 M57.185,133.982H27.076
			c-1.246,0-2.258,1.01-2.258,2.258v1.505c0,1.248,1.012,2.258,2.258,2.258h30.108c1.247,0,2.258-1.01,2.258-2.258v-1.505
			C59.443,134.993,58.431,133.982,57.185,133.982L57.185,133.982z"/>
	</g>
	<g>
		<path d="M42.131,150.042c-4.896,0-10.328-2.655-10.763-6.527h21.524C52.458,147.387,47.026,150.042,42.131,150.042z"/>
		<path fill="#1CE9F9" d="M52.29,144.015c-0.857,3.223-5.746,5.527-10.159,5.527s-9.301-2.304-10.159-5.527H52.29 M53.421,143.015
			H30.84c0,4.516,6.022,7.527,11.291,7.527C47.4,150.542,53.421,147.531,53.421,143.015L53.421,143.015z"/>
	</g>
</g>
<g>
	<path fill="#1CE9F9" d="M45.168,65.249l-6.98-42.232c-0.016-0.078-0.078-0.134-0.15-0.134h-3.861c-0.041,0-0.08,0.019-0.11,0.051
		c-0.029,0.032-0.046,0.077-0.046,0.124v42.232c0,0.046,0.017,0.091,0.046,0.123c0.029,0.033,0.069,0.051,0.11,0.051h10.841
		c0.047,0,0.092-0.024,0.121-0.066C45.169,65.356,45.179,65.301,45.168,65.249z"/>
	<path fill="#1CE9F9" d="M47.182,57.889c0.401,0.179,0.834,0.277,1.299,0.277h0.04h-0.003c0.474-0.007,0.912-0.114,1.315-0.302
		c0.403-0.189,0.769-0.462,1.081-0.8c0.138-0.15,0.291-0.274,0.451-0.376c0.618-0.588,1.313-1.081,2.078-1.44
		c0.925-0.435,1.945-0.681,3.005-0.694h-0.006c0.036,0,0.068-0.001,0.097-0.001c1.043,0,2.048,0.226,2.965,0.637
		c0.918,0.411,1.749,1.004,2.458,1.739l0.034,0.036l0.149,0.161c0.312,0.323,0.677,0.583,1.075,0.761
		c0.401,0.179,0.834,0.277,1.299,0.277h0.04h-0.002c0.472-0.007,0.911-0.114,1.314-0.302c0.403-0.189,0.77-0.462,1.082-0.8
		c0.002-0.001,0.002-0.003,0.003-0.003v-4.877c-0.001,0.002-0.001,0.002-0.003,0.004c-0.311,0.338-0.679,0.611-1.082,0.8
		c-0.403,0.189-0.841,0.296-1.312,0.302h-0.041c-0.464,0-0.897-0.099-1.297-0.277c-0.398-0.178-0.764-0.437-1.076-0.761l-0.148-0.16
		l-0.033-0.036c-0.709-0.736-1.54-1.33-2.459-1.74c-0.918-0.411-1.923-0.637-2.965-0.637c-0.029,0-0.061,0.001-0.097,0.001
		l0.007-0.001c-1.06,0.013-2.079,0.259-3.005,0.694c-0.765,0.359-1.461,0.851-2.08,1.442c-0.16,0.102-0.311,0.225-0.449,0.374
		c-0.311,0.339-0.678,0.611-1.081,0.8c-0.403,0.189-0.841,0.296-1.313,0.302h-0.041c-0.464,0-0.896-0.099-1.297-0.277
		c-0.398-0.178-0.763-0.437-1.075-0.761l-0.145-0.158l-0.037-0.039c-0.114-0.12-0.238-0.229-0.359-0.34l1.333,6.03
		C46.992,57.797,47.086,57.846,47.182,57.889z"/>
	<path fill="#1CE9F9" d="M66.952,59.461c-0.311,0.339-0.679,0.61-1.082,0.8c-0.403,0.189-0.842,0.297-1.314,0.303h0.002h-0.04
		c-0.465,0-0.898-0.098-1.299-0.278c-0.398-0.178-0.763-0.437-1.075-0.761l-0.149-0.16l-0.034-0.037
		c-0.709-0.735-1.54-1.329-2.458-1.739c-0.917-0.411-1.923-0.637-2.965-0.637c-0.03,0-0.062,0.001-0.097,0.001h0.006
		c-1.06,0.012-2.079,0.258-3.005,0.693c-0.765,0.359-1.46,0.851-2.078,1.44c-0.16,0.102-0.313,0.225-0.451,0.375
		c-0.311,0.339-0.678,0.611-1.081,0.8c-0.403,0.189-0.842,0.297-1.315,0.303h0.003h-0.04c-0.465,0-0.898-0.098-1.299-0.278
		c-0.096-0.043-0.19-0.091-0.284-0.143l1.186,5.366c0.132,0.007,0.263,0.011,0.396,0.011c0.029,0,0.057,0,0.087-0.001h0.002
		c1.06-0.013,2.077-0.259,3.003-0.694c0.764-0.359,1.46-0.851,2.077-1.44c0.16-0.102,0.313-0.225,0.452-0.376
		c0.311-0.338,0.678-0.611,1.08-0.8c0.403-0.189,0.842-0.296,1.313-0.302l0.007-0.001h0.036c0.463,0,0.896,0.099,1.296,0.278
		c0.398,0.178,0.762,0.437,1.073,0.759l0.149,0.161l0.033,0.036c0.71,0.737,1.542,1.33,2.46,1.741
		c0.919,0.411,1.925,0.637,2.968,0.637c0.029,0,0.057,0,0.087-0.001h0.002c0.815-0.01,1.604-0.159,2.347-0.424v-5.636
		C66.954,59.458,66.953,59.46,66.952,59.461z"/>
	<polygon fill="#1CE9F9" points="18.97,59.66 18.97,62.446 18.97,62.631 18.97,65.416 31.435,65.416 31.435,62.631 31.435,62.446 
		31.435,59.66 	"/>
	<polygon fill="#1CE9F9" points="18.97,52.39 18.97,55.176 18.97,55.361 18.97,58.147 31.435,58.147 31.435,55.361 31.435,55.176 
		31.435,52.39 	"/>
	<polygon fill="#1CE9F9" points="18.97,45.12 18.97,47.905 18.97,48.092 18.97,50.876 31.435,50.876 31.435,48.092 31.435,47.905 
		31.435,45.12 	"/>
</g>
</svg>
