<?xml version="1.0" encoding="utf-8"?>
<!-- Generator: Adobe Illustrator 19.1.0, SVG Export Plug-In . SVG Version: 6.00 Build 0)  -->
<svg version="1.1" id="Layer_1" xmlns="http://www.w3.org/2000/svg" xmlns:xlink="http://www.w3.org/1999/xlink" x="0px" y="0px"
	 viewBox="0 0 87.261 153.865" enable-background="new 0 0 87.261 153.865" xml:space="preserve">
<g>
	<g>
		<path d="M30.183,112.367c-6.198,0-7.936-1.878-9.299-10.046c-1.863-11.188-4.994-21.68-14.829-39.397
			C2.369,56.273,0.5,49.277,0.5,42.131C0.5,19.176,19.176,0.5,42.131,0.5c11.12,0,21.574,4.33,29.438,12.193
			s12.193,18.318,12.193,29.438c0,7.15-1.868,14.146-5.553,20.793c-9.838,17.723-12.969,28.214-14.832,39.397
			c-1.362,8.168-3.101,10.046-9.299,10.046H30.183z"/>
		<path fill="#1CE9F9" d="M42.131,1c10.986,0,21.315,4.278,29.084,12.047c7.769,7.769,12.047,18.098,12.046,29.084
			c0,7.066-1.847,13.98-5.49,20.55C67.9,80.464,64.756,91.002,62.884,102.239c-1.396,8.365-3.229,9.629-8.806,9.629H42.131H30.182
			c-5.577,0-7.409-1.264-8.805-9.629c-1.872-11.238-5.015-21.776-14.886-39.558C2.848,56.105,1,49.19,1,42.131
			C1,19.451,19.451,1,42.131,1 M42.131,0C18.864,0,0,18.863,0,42.131c0,7.661,2.153,14.783,5.617,21.035
			c10.347,18.64,13.087,29.107,14.774,39.237c1.417,8.492,3.377,10.464,9.791,10.464c2.728,0,7.194,0,11.948,0
			c4.754,0,9.221,0,11.947,0c6.418,0,8.376-1.975,9.793-10.464c1.688-10.13,4.429-20.599,14.776-39.237
			c3.465-6.251,5.615-13.374,5.615-21.035C84.263,18.863,65.398,0,42.131,0L42.131,0z"/>
	</g>
	<g>
		<path d="M27.076,121.439c-0.97,0-1.758-0.789-1.758-1.759v-1.505c0-0.97,0.788-1.759,1.758-1.759h30.108
			c0.97,0,1.759,0.789,1.759,1.759v1.505c0,0.97-0.789,1.759-1.759,1.759H27.076z"/>
		<path fill="#1CE9F9" d="M57.185,116.917c0.694,0,1.258,0.564,1.258,1.258v1.505c0,0.694-0.564,1.258-1.258,1.258H27.076
			c-0.694,0-1.258-0.564-1.258-1.258v-1.505c0-0.694,0.564-1.258,1.258-1.258H57.185 M57.185,115.917H27.076
			c-1.246,0-2.258,1.01-2.258,2.258v1.505c0,1.248,1.012,2.258,2.258,2.258h30.108c1.247,0,2.258-1.01,2.258-2.258v-1.505
			C59.443,116.927,58.431,115.917,57.185,115.917L57.185,115.917z"/>
	</g>
	<g>
		<path d="M27.076,130.472c-0.97,0-1.758-0.788-1.758-1.758v-1.506c0-0.97,0.788-1.758,1.758-1.758h30.108
			c0.97,0,1.759,0.788,1.759,1.758v1.506c0,0.97-0.789,1.758-1.759,1.758H27.076z"/>
		<path fill="#1CE9F9" d="M57.185,125.95c0.694,0,1.258,0.564,1.258,1.258v1.505c0,0.694-0.564,1.258-1.258,1.258H27.076
			c-0.694,0-1.258-0.564-1.258-1.258v-1.505c0-0.694,0.564-1.258,1.258-1.258H57.185 M57.185,124.95H27.076
			c-1.246,0-2.258,1.01-2.258,2.258v1.505c0,1.248,1.012,2.258,2.258,2.258h30.108c1.247,0,2.258-1.01,2.258-2.258v-1.505
			C59.443,125.96,58.431,124.95,57.185,124.95L57.185,124.95z"/>
	</g>
	<g>
		<path d="M27.076,139.504c-0.97,0-1.758-0.788-1.758-1.758v-1.506c0-0.97,0.788-1.758,1.758-1.758h30.108
			c0.97,0,1.759,0.788,1.759,1.758v1.506c0,0.97-0.789,1.758-1.759,1.758H27.076z"/>
		<path fill="#1CE9F9" d="M57.185,134.982c0.694,0,1.258,0.564,1.258,1.258v1.505c0,0.694-0.564,1.258-1.258,1.258H27.076
			c-0.694,0-1.258-0.564-1.258-1.258v-1.505c0-0.694,0.564-1.258,1.258-1.258H57.185 M57.185,133.982H27.076
			c-1.246,0-2.258,1.01-2.258,2.258v1.505c0,1.248,1.012,2.258,2.258,2.258h30.108c1.247,0,2.258-1.01,2.258-2.258v-1.505
			C59.443,134.993,58.431,133.982,57.185,133.982L57.185,133.982z"/>
	</g>
	<g>
		<path d="M42.131,150.042c-4.896,0-10.328-2.655-10.763-6.527h21.524C52.458,147.387,47.026,150.042,42.131,150.042z"/>
		<path fill="#1CE9F9" d="M52.29,144.015c-0.857,3.223-5.746,5.527-10.159,5.527s-9.301-2.304-10.159-5.527H52.29 M53.421,143.015
			H30.84c0,4.516,6.022,7.527,11.291,7.527S53.421,147.531,53.421,143.015L53.421,143.015z"/>
	</g>
</g>
<g>
	<path fill="#1CE9F9" d="M31.278,61.355c0,2.426,1.968,4.349,4.349,4.349h0.641v0.504h10.666v-0.504h0.641
		c2.426,0,4.349-1.968,4.349-4.349v-7.141H31.278V61.355z"/>
	<path fill="#1CE9F9" d="M47.438,28.472v-5.493h0.778c0.32,0,0.595-0.275,0.595-0.595v-0.275c0-0.32-0.275-0.595-0.595-0.595H35.032
		c-0.32,0-0.595,0.275-0.595,0.595v0.229c0,0.32,0.275,0.595,0.595,0.595h0.778v5.493c-2.701,1.465-4.578,4.349-4.578,7.691v2.792
		h20.692v-2.747C51.97,32.821,50.139,29.983,47.438,28.472z M38.832,22.979h5.539v4.532c-0.366-0.046-0.732-0.092-1.099-0.092
		v-1.694h-3.342v1.694c-0.366,0-0.732,0.046-1.099,0.092V22.979z"/>
	<rect x="31.278" y="41.892" fill="#1CE9F9" width="20.692" height="9.385"/>
</g>
</svg>
