<?xml version="1.0" encoding="utf-8"?>
<!-- Generator: Adobe Illustrator 19.1.0, SVG Export Plug-In . SVG Version: 6.00 Build 0)  -->
<svg version="1.1" id="Layer_1" xmlns="http://www.w3.org/2000/svg" xmlns:xlink="http://www.w3.org/1999/xlink" x="0px" y="0px"
	 viewBox="0 0 87.261 153.865" enable-background="new 0 0 87.261 153.865" xml:space="preserve">
<g>
	<g>
		<path d="M42.131,0C18.864,0,0,18.863,0,42.131c0,7.661,2.153,14.783,5.617,21.035c10.347,18.64,13.087,29.107,14.774,39.237
			c1.417,8.492,3.377,10.464,9.791,10.464c2.728,0,7.194,0,11.949,0s9.221,0,11.947,0c6.418,0,8.376-1.975,9.793-10.464
			c1.688-10.13,4.429-20.599,14.776-39.237c3.465-6.251,5.615-13.374,5.615-21.035C84.263,18.863,65.398,0,42.131,0z"/>
		<path d="M57.185,115.917H27.076c-1.246,0-2.258,1.01-2.258,2.258v1.505c0,1.248,1.012,2.258,2.258,2.258h30.108
			c1.246,0,2.258-1.01,2.258-2.258v-1.505C59.443,116.927,58.431,115.917,57.185,115.917z"/>
		<path d="M57.185,124.95H27.076c-1.246,0-2.258,1.01-2.258,2.258v1.505c0,1.248,1.012,2.258,2.258,2.258h30.108
			c1.246,0,2.258-1.01,2.258-2.258v-1.505C59.443,125.96,58.431,124.95,57.185,124.95z"/>
		<path d="M57.185,133.982H27.076c-1.246,0-2.258,1.01-2.258,2.258v1.505c0,1.248,1.012,2.258,2.258,2.258h30.108
			c1.246,0,2.258-1.01,2.258-2.258v-1.505C59.443,134.993,58.431,133.982,57.185,133.982z"/>
		<path d="M30.84,143.015h22.581c0,4.516-6.022,7.527-11.291,7.527S30.84,147.531,30.84,143.015z"/>
	</g>
	<g>
		<path fill="#1CE9F9" d="M31.278,61.355c0,2.426,1.968,4.349,4.349,4.349h0.641v0.504h10.666v-0.504h0.641
			c2.426,0,4.349-1.968,4.349-4.349v-7.141H31.278V61.355z"/>
		<path fill="#1CE9F9" d="M47.438,28.472v-5.493h0.778c0.32,0,0.595-0.275,0.595-0.595v-0.275c0-0.32-0.275-0.595-0.595-0.595
			H35.032c-0.32,0-0.595,0.275-0.595,0.595v0.229c0,0.32,0.275,0.595,0.595,0.595h0.778v5.493c-2.701,1.465-4.578,4.349-4.578,7.691
			v2.792h20.692v-2.747C51.97,32.821,50.139,29.983,47.438,28.472z M38.832,22.979h5.539v4.532
			c-0.366-0.046-0.732-0.092-1.099-0.092v-1.694h-3.342v1.694c-0.366,0-0.732,0.046-1.099,0.092V22.979z"/>
		<rect x="31.278" y="41.892" fill="#1CE9F9" width="20.692" height="9.385"/>
	</g>
</g>
</svg>
