<?xml version="1.0" encoding="utf-8"?>
<!-- Generator: Adobe Illustrator 19.1.0, SVG Export Plug-In . SVG Version: 6.00 Build 0)  -->
<svg version="1.1" id="Layer_1" xmlns="http://www.w3.org/2000/svg" xmlns:xlink="http://www.w3.org/1999/xlink" x="0px" y="0px"
	 viewBox="0 0 64 64" enable-background="new 0 0 64 64" xml:space="preserve">
<g>
	<path fill="#3DE3F4" d="M16.92,55.005c0,3.544,2.876,6.353,6.353,6.353h0.936v0.736h15.582v-0.736h0.936
		c3.544,0,6.353-2.876,6.353-6.353V44.572H16.92V55.005z"/>
	<path fill="#3DE3F4" d="M40.527,12.071V4.046h1.137c0.468,0,0.869-0.401,0.869-0.869V2.776c0-0.468-0.401-0.869-0.869-0.869h-19.26
		c-0.468,0-0.869,0.401-0.869,0.869V3.11c0,0.468,0.401,0.869,0.869,0.869h1.137v8.025c-3.946,2.14-6.687,6.353-6.687,11.235v4.079
		H47.08v-4.012C47.147,18.424,44.472,14.278,40.527,12.071z M27.954,4.046h8.092v6.621c-0.535-0.067-1.07-0.134-1.605-0.134V8.059
		h-4.882v2.474c-0.535,0-1.07,0.067-1.605,0.134C27.954,10.667,27.954,4.046,27.954,4.046z"/>
	<rect x="16.92" y="29.124" fill="#3DE3F4" width="30.227" height="13.709"/>
</g>
</svg>
