<?xml version="1.0" encoding="utf-8"?>
<!-- Generator: Adobe Illustrator 19.1.0, SVG Export Plug-In . SVG Version: 6.00 Build 0)  -->
<svg version="1.1" id="Layer_1" xmlns="http://www.w3.org/2000/svg" xmlns:xlink="http://www.w3.org/1999/xlink" x="0px" y="0px"
	 viewBox="0 0 800 365" enable-background="new 0 0 800 365" xml:space="preserve">
<g>
	<text transform="matrix(1 0 0 1 126.7734 88.1695)" fill="#FFFFFF" font-family="'ProximaNovaS-Thin'" font-size="96.7507px">great job!</text>
</g>
<g>
	<text transform="matrix(1 0 0 1 132.7733 118.623)"><tspan x="0" y="0" fill="#FFFFFF" font-family="'ProximaNovaS-Light'" font-size="26px">you just unlocked</tspan><tspan x="231.552" y="0" fill="#FFFFFF" font-family="'ProximaNovaS-Regular'" font-size="26px"> </tspan><tspan x="238.286" y="0" fill="#1CE9F9" font-family="'ProximaNovaS-Semibold'" font-size="26px">2 new</tspan><tspan x="310.539" y="0" fill="#FFFFFF" font-family="'ProximaNovaS-Regular'" font-size="26px"> </tspan><tspan x="317.272" y="0" fill="#1CE9F9" font-family="'ProximaNovaS-Semibold'" font-size="26px">energies!</tspan></text>
</g>
<g>
	<text transform="matrix(1 0 0 1 131.7733 158.724)"><tspan x="0" y="0" fill="#1CE9F9" font-family="'Noteworthy-Light'" font-size="17px" letter-spacing="1">Remember to whack only the sustainable ones to gain points.  </tspan><tspan x="0" y="20.4" fill="#1CE9F9" font-family="'Noteworthy-Light'" font-size="17px" letter-spacing="1">Read the hints..</tspan></text>
</g>
<g>
	<text transform="matrix(1 0 0 1 131.7733 304.7061)"><tspan x="0" y="0" fill="#FFFFFF" font-family="'Noteworthy-Light'" font-size="14px" letter-spacing="1">+ generates useful heat and electricity</tspan><tspan x="0" y="19" fill="#FFFFFF" font-family="'Noteworthy-Light'" font-size="14px" letter-spacing="1">+ low carbon power generation</tspan><tspan x="0" y="38" fill="#FFFFFF" font-family="'Noteworthy-Light'" font-size="14px" letter-spacing="1">+ power plant accidents cause radiation</tspan></text>
</g>
<g>
	<text transform="matrix(1 0 0 1 421.3691 306.0919)"><tspan x="0" y="0" fill="#FFFFFF" font-family="'Noteworthy-Light'" font-size="14px" letter-spacing="1">+ generated and stored in the Earth’s crust</tspan><tspan x="0" y="19" fill="#FFFFFF" font-family="'Noteworthy-Light'" font-size="14px" letter-spacing="1">+ (20%) from the original formation of the planet</tspan><tspan x="0" y="38" fill="#FFFFFF" font-family="'Noteworthy-Light'" font-size="14px" letter-spacing="1">+ (80%) from radioactive decay of minerals</tspan></text>
</g>
<line fill="none" stroke="#1CE9F9" stroke-miterlimit="10" x1="60.721" y1="133" x2="829" y2="133"/>
<g opacity="0.8">
	<path fill="#FFFFFF" d="M0,21.689c-39.963,0-72.366,32.4-72.366,72.366c0,13.159,3.698,25.392,9.648,36.131
		c17.772,32.017,22.478,49.996,25.377,67.396c2.433,14.586,5.8,17.974,16.818,17.974c4.685,0,12.358,0,20.523,0s15.838,0,20.521,0
		c11.023,0,14.387-3.393,16.821-17.974c2.899-17.4,7.607-35.381,25.38-67.396c5.952-10.736,9.645-22.972,9.645-36.131
		C72.369,54.089,39.966,21.689,0,21.689z"/>
	<path fill="#FFFFFF" d="M25.858,220.795h-51.716c-2.141,0-3.879,1.735-3.879,3.879v2.586c0,2.144,1.738,3.879,3.879,3.879h51.716
		c2.141,0,3.879-1.735,3.879-3.879v-2.586C29.737,222.53,27.999,220.795,25.858,220.795z"/>
	<path fill="#FFFFFF" d="M25.858,236.31h-51.716c-2.141,0-3.879,1.735-3.879,3.879v2.586c0,2.144,1.738,3.879,3.879,3.879h51.716
		c2.141,0,3.879-1.735,3.879-3.879v-2.586C29.737,238.045,27.999,236.31,25.858,236.31z"/>
	<path fill="#FFFFFF" d="M25.858,251.825h-51.716c-2.141,0-3.879,1.735-3.879,3.879v2.586c0,2.144,1.738,3.879,3.879,3.879h51.716
		c2.141,0,3.879-1.735,3.879-3.879v-2.586C29.737,253.56,27.999,251.825,25.858,251.825z"/>
	<path fill="#FFFFFF" d="M-19.393,267.34h38.787c0,7.757-10.343,12.929-19.393,12.929S-19.393,275.097-19.393,267.34z"/>
</g>
<g opacity="0.5">
	<path fill="none" stroke="#0FFFFF" stroke-miterlimit="10" d="M0,21.689c-39.963,0-72.366,32.4-72.366,72.366
		c0,13.159,3.698,25.392,9.648,36.131c17.772,32.017,22.478,49.996,25.377,67.396c2.433,14.586,5.8,17.974,16.818,17.974
		c4.685,0,12.358,0,20.523,0s15.838,0,20.521,0c11.023,0,14.387-3.393,16.821-17.974c2.899-17.4,7.607-35.381,25.38-67.396
		c5.952-10.736,9.645-22.972,9.645-36.131C72.369,54.089,39.966,21.689,0,21.689z"/>
	<path fill="none" stroke="#0FFFFF" stroke-miterlimit="10" d="M25.858,220.795h-51.716c-2.141,0-3.879,1.735-3.879,3.879v2.586
		c0,2.144,1.738,3.879,3.879,3.879h51.716c2.141,0,3.879-1.735,3.879-3.879v-2.586C29.737,222.53,27.999,220.795,25.858,220.795z"/>
	<path fill="none" stroke="#0FFFFF" stroke-miterlimit="10" d="M25.858,236.31h-51.716c-2.141,0-3.879,1.735-3.879,3.879v2.586
		c0,2.144,1.738,3.879,3.879,3.879h51.716c2.141,0,3.879-1.735,3.879-3.879v-2.586C29.737,238.045,27.999,236.31,25.858,236.31z"/>
	<path fill="none" stroke="#0FFFFF" stroke-miterlimit="10" d="M25.858,251.825h-51.716c-2.141,0-3.879,1.735-3.879,3.879v2.586
		c0,2.144,1.738,3.879,3.879,3.879h51.716c2.141,0,3.879-1.735,3.879-3.879v-2.586C29.737,253.56,27.999,251.825,25.858,251.825z"/>
	<path fill="none" stroke="#0FFFFF" stroke-miterlimit="10" d="M-19.393,267.34h38.787c0,7.757-10.343,12.929-19.393,12.929
		S-19.393,275.097-19.393,267.34z"/>
</g>
<g>
	<g>
		<g>
			<path fill="#1CE9F9" d="M166.01,234.96c-0.231-1.011-0.5-1.969-0.798-2.869c-1.514-0.115-2.714-1.365-2.714-2.912
				c0-0.615,0.193-1.187,0.518-1.66c-0.653-0.857-1.256-1.273-1.691-1.273c-1.333,0-3.382,3.165-4.671,8.719
				c1.512,0.547,3.075,1.203,4.671,1.967C162.926,236.165,164.495,235.51,166.01,234.96"/>
			<path fill="#1CE9F9" d="M157.22,253.3c-0.485-0.278-0.951-0.567-1.421-0.855c0.102,0.907,0.233,1.782,0.378,2.641
				c0.815-0.302,1.642-0.637,2.479-1C158.178,253.825,157.701,253.577,157.22,253.3"/>
			<path fill="#1CE9F9" d="M158.656,238.294c-0.835-0.364-1.659-0.697-2.47-0.998c-0.145,0.839-0.274,1.711-0.379,2.634
				c0.467-0.286,0.931-0.574,1.413-0.85C157.701,238.801,158.178,238.554,158.656,238.294"/>
			<path fill="#1CE9F9" d="M165.431,239.078c0.484,0.28,0.951,0.567,1.419,0.856c-0.102-0.908-0.232-1.782-0.378-2.641
				c-0.814,0.301-1.639,0.636-2.478,1C164.473,238.554,164.95,238.801,165.431,239.078"/>
			<path fill="#1CE9F9" d="M144.055,236.218c-0.666,1.154,1.047,4.508,5.209,8.4c1.23-1.036,2.571-2.064,4.031-3.064
				c0.137-1.764,0.358-3.442,0.639-5.024c-2.505-0.772-4.812-1.215-6.685-1.215C145.279,235.314,144.307,235.783,144.055,236.218"/>
			<path fill="#1CE9F9" d="M149.253,247.75c-0.746,0.695-1.426,1.391-2.048,2.083c0.186,1.167-0.34,2.378-1.423,3.004
				c-0.332,0.191-0.688,0.306-1.047,0.358c-0.787,1.439-0.957,2.488-0.68,2.966c0.252,0.437,1.224,0.904,3.191,0.904
				c1.876,0,4.181-0.443,6.687-1.215c-0.282-1.582-0.502-3.258-0.639-5.023C151.832,249.822,150.485,248.79,149.253,247.75"/>
			<path fill="#1CE9F9" d="M151.043,246.183c0.658,0.549,1.35,1.1,2.101,1.654c-0.014-0.546-0.029-1.092-0.029-1.647
				c0-0.56,0.016-1.108,0.029-1.657C152.408,245.076,151.713,245.628,151.043,246.183"/>
			<path fill="#1CE9F9" d="M156.64,257.418c0.307,1.333,0.663,2.586,1.081,3.72c1.263,3.43,2.754,4.992,3.604,4.992
				c1.333,0,3.382-3.164,4.671-8.718c-1.512-0.547-3.075-1.202-4.671-1.966C159.724,256.213,158.157,256.87,156.64,257.418"/>
			<path fill="#1CE9F9" d="M178.595,236.218c-0.252-0.435-1.224-0.904-3.191-0.904c-1.876,0-4.182,0.443-6.687,1.215
				c0.282,1.582,0.502,3.26,0.639,5.024c1.464,1.002,2.809,2.036,4.041,3.075c0.999-0.93,1.907-1.865,2.676-2.792
				C178.412,239.028,179.019,236.956,178.595,236.218"/>
			<path fill="#1CE9F9" d="M161.325,216.863c-16.17,0-29.325,13.156-29.325,29.325c0,16.17,13.155,29.325,29.325,29.325
				s29.325-13.155,29.325-29.325C190.65,230.019,177.495,216.863,161.325,216.863 M180.627,257.332
				c-0.547,0.949-1.582,1.554-2.974,1.853c-0.065,0.27-0.153,0.535-0.298,0.788c-0.809,1.401-2.603,1.882-4.006,1.073
				c-0.766-0.442-1.243-1.179-1.4-1.982c-1.163-0.205-2.407-0.514-3.705-0.905c-1.46,6.196-4.01,10.317-6.919,10.317
				s-5.46-4.119-6.919-10.317c-2.688,0.809-5.144,1.251-7.159,1.251c-2.547,0-4.412-0.671-5.224-2.078
				c-0.716-1.242-0.521-2.908,0.411-4.803c-0.253-0.212-0.482-0.463-0.656-0.766c-0.811-1.403-0.33-3.197,1.073-4.006
				c0.968-0.561,2.119-0.491,3.007,0.06c0.502-0.538,1.054-1.082,1.634-1.628c-4.632-4.358-6.923-8.624-5.469-11.144
				c0.812-1.404,2.677-2.077,5.224-2.077c2.016,0,4.472,0.442,7.159,1.251c1.459-6.196,4.009-10.318,6.919-10.318
				c1.326,0,2.574,0.874,3.684,2.388c0.137-0.018,0.277-0.042,0.421-0.042c1.619,0,2.933,1.313,2.933,2.933
				c0,0.847-0.363,1.602-0.935,2.136c0.3,0.906,0.573,1.873,0.816,2.904c2.686-0.809,5.144-1.252,7.157-1.252
				c2.55,0,4.412,0.673,5.226,2.077c1.453,2.519-0.836,6.785-5.469,11.144C179.791,250.55,182.081,254.814,180.627,257.332"/>
			<path fill="#1CE9F9" d="M171.607,246.195c-0.658-0.547-1.352-1.099-2.102-1.653c0.015,0.547,0.031,1.092,0.031,1.647
				c0,0.56-0.016,1.108-0.031,1.657C170.242,247.303,170.936,246.752,171.607,246.195"/>
			<path fill="#1CE9F9" d="M173.386,247.761c-1.232,1.036-2.571,2.065-4.031,3.065c-0.138,1.764-0.358,3.441-0.639,5.024
				c1.322,0.407,2.581,0.717,3.755,0.919c0.875-1.181,2.506-1.555,3.81-0.802c0.405,0.232,0.721,0.555,0.964,0.916
				c0.763-0.175,1.194-0.454,1.35-0.724C179.261,255.007,177.547,251.652,173.386,247.761"/>
			<path fill="#1CE9F9" d="M164.258,241.11c-0.974-0.561-1.953-1.077-2.933-1.569c-0.981,0.491-1.959,1.007-2.933,1.569
				c-0.977,0.564-1.915,1.152-2.828,1.752c-0.061,1.071-0.104,2.172-0.104,3.327c0,1.129,0.041,2.234,0.102,3.324
				c0.897,0.591,1.83,1.178,2.831,1.755c0.974,0.564,1.952,1.077,2.933,1.569c0.979-0.491,1.959-1.005,2.933-1.569
				c0.976-0.562,1.915-1.15,2.827-1.749c0.063-1.071,0.106-2.173,0.106-3.33c0-1.127-0.04-2.233-0.103-3.324
				C166.191,242.275,165.259,241.688,164.258,241.11"/>
			<path fill="#1CE9F9" d="M163.994,254.085c0.833,0.364,1.658,0.697,2.47,0.999c0.145-0.839,0.275-1.711,0.378-2.635
				c-0.465,0.287-0.931,0.574-1.412,0.851C164.95,253.577,164.473,253.825,163.994,254.085"/>
		</g>
	</g>
	<text transform="matrix(1 0 0 1 206.7734 275.5139)" fill="#1CE9F9" font-family="'ProximaNovaS-Semibold'" font-size="33px">nuclear</text>
</g>
<g>
	<text transform="matrix(1 0 0 1 496.715 276.8998)" fill="#1CE9F9" font-family="'ProximaNovaS-Semibold'" font-size="33px">geothermal</text>
	<g>
		<path fill="#1CE9F9" d="M461.876,239.556l-1.31-19.318h-2.925l-0.968,14.259h-1.957v-5.119h-16.087v10.419
			c-6.075,0.879-11.95,2.371-17.55,4.438v31.421h13.371c0-4.178,4.178-6.686,4.178-11.7c0.001-5.014-3.342-7.521-3.342-11.7h-2.507
			l5.015-6.686l5.014,6.686H440.3c0,4.178,3.343,6.686,3.343,11.7c0,5.014-4.179,7.521-4.178,11.7h8.357
			c0-4.178,4.178-6.686,4.178-11.7c0-5.014-3.343-7.521-3.343-11.7h-2.507l5.014-6.686l5.014,6.686h-2.507
			c0,4.178,3.343,6.686,3.343,11.7c0,5.014-4.179,7.521-4.179,11.7h8.358c0-4.178,4.178-6.686,4.178-11.7
			c0-5.014-3.343-7.521-3.343-11.7h-2.507l5.015-6.686l5.014,6.686h-2.507c0,4.178,3.343,6.686,3.343,11.7
			c0,5.014-4.179,7.522-4.179,11.7h15.043v-31.421C475.091,241.962,468.6,240.383,461.876,239.556z"/>
		<path fill="#1CE9F9" d="M445.576,218.41h7.312c1.267,0,5.119,0,5.119,0.731h2.194c0-2.925-4.054-2.925-7.313-2.925h-7.312
			c-1.333,0-3.989-0.447-4.753-0.731C440.949,215.533,441.919,218.41,445.576,218.41z"/>
	</g>
</g>
</svg>
