<?xml version="1.0" encoding="utf-8"?>
<!-- Generator: Adobe Illustrator 19.1.0, SVG Export Plug-In . SVG Version: 6.00 Build 0)  -->
<svg version="1.1" id="Layer_1" xmlns="http://www.w3.org/2000/svg" xmlns:xlink="http://www.w3.org/1999/xlink" x="0px" y="0px"
	 viewBox="0 0 64 64" enable-background="new 0 0 64 64" xml:space="preserve">
<path fill="#3DE3F4" d="M36.587,20.759c-0.231-1.011-0.5-1.969-0.798-2.869c-1.514-0.115-2.714-1.365-2.714-2.912
	c0-0.615,0.193-1.187,0.518-1.66c-0.653-0.857-1.256-1.273-1.691-1.273c-1.333,0-3.382,3.165-4.671,8.719
	c1.512,0.547,3.075,1.203,4.671,1.967C33.503,21.964,35.072,21.309,36.587,20.759"/>
<path fill="#3DE3F4" d="M27.797,39.099c-0.485-0.278-0.951-0.567-1.421-0.855c0.102,0.907,0.233,1.782,0.378,2.641
	c0.815-0.302,1.642-0.637,2.479-1C28.755,39.624,28.278,39.376,27.797,39.099"/>
<path fill="#3DE3F4" d="M29.233,24.092c-0.835-0.364-1.659-0.697-2.47-0.998c-0.145,0.839-0.274,1.711-0.379,2.634
	c0.467-0.286,0.931-0.574,1.413-0.85C28.278,24.6,28.755,24.352,29.233,24.092"/>
<path fill="#3DE3F4" d="M36.008,24.877c0.484,0.28,0.951,0.567,1.419,0.856c-0.102-0.908-0.232-1.782-0.378-2.641
	c-0.814,0.301-1.639,0.636-2.478,1C35.05,24.352,35.527,24.6,36.008,24.877"/>
<path fill="#3DE3F4" d="M14.632,22.017c-0.666,1.154,1.047,4.508,5.209,8.4c1.23-1.036,2.571-2.064,4.031-3.064
	c0.138-1.764,0.358-3.442,0.639-5.024c-2.505-0.772-4.812-1.215-6.685-1.215C15.856,21.113,14.885,21.581,14.632,22.017"/>
<path fill="#3DE3F4" d="M19.83,33.549c-0.746,0.695-1.426,1.391-2.048,2.083c0.186,1.167-0.34,2.378-1.423,3.004
	c-0.332,0.191-0.688,0.306-1.047,0.358c-0.787,1.439-0.957,2.488-0.68,2.966c0.252,0.437,1.224,0.904,3.191,0.904
	c1.876,0,4.181-0.443,6.687-1.215c-0.282-1.582-0.502-3.258-0.639-5.023C22.409,35.621,21.062,34.589,19.83,33.549"/>
<path fill="#3DE3F4" d="M21.62,31.981c0.658,0.549,1.35,1.1,2.101,1.654c-0.014-0.546-0.029-1.092-0.029-1.647
	c0-0.56,0.016-1.108,0.029-1.657C22.985,30.875,22.29,31.426,21.62,31.981"/>
<path fill="#3DE3F4" d="M27.217,43.217c0.307,1.333,0.663,2.586,1.081,3.72c1.263,3.43,2.754,4.992,3.604,4.992
	c1.333,0,3.382-3.164,4.671-8.718c-1.512-0.547-3.075-1.202-4.671-1.966C30.301,42.012,28.734,42.668,27.217,43.217"/>
<path fill="#3DE3F4" d="M49.172,22.017c-0.252-0.435-1.224-0.904-3.191-0.904c-1.876,0-4.182,0.443-6.687,1.215
	c0.282,1.582,0.502,3.26,0.639,5.024c1.464,1.002,2.809,2.036,4.041,3.075c0.999-0.93,1.907-1.865,2.676-2.792
	C48.989,24.827,49.596,22.754,49.172,22.017"/>
<path fill="#3DE3F4" d="M31.902,2.662c-16.17,0-29.325,13.156-29.325,29.325c0,16.17,13.155,29.325,29.325,29.325
	s29.325-13.155,29.325-29.325C61.228,15.818,48.072,2.662,31.902,2.662 M51.204,43.131c-0.547,0.949-1.582,1.554-2.974,1.853
	c-0.065,0.27-0.153,0.535-0.298,0.788c-0.809,1.401-2.603,1.882-4.006,1.073c-0.766-0.442-1.243-1.179-1.4-1.982
	c-1.163-0.205-2.407-0.514-3.705-0.905c-1.46,6.196-4.01,10.317-6.919,10.317s-5.46-4.119-6.919-10.317
	c-2.687,0.809-5.144,1.251-7.159,1.251c-2.547,0-4.412-0.671-5.224-2.078c-0.716-1.242-0.521-2.908,0.411-4.803
	c-0.254-0.212-0.482-0.463-0.656-0.766c-0.811-1.403-0.33-3.197,1.073-4.006c0.968-0.561,2.119-0.491,3.007,0.06
	c0.502-0.538,1.054-1.082,1.634-1.628c-4.632-4.358-6.923-8.624-5.469-11.144c0.812-1.404,2.677-2.077,5.224-2.077
	c2.016,0,4.472,0.442,7.159,1.251C26.443,13.822,28.993,9.7,31.902,9.7c1.326,0,2.574,0.874,3.684,2.388
	c0.138-0.018,0.277-0.042,0.421-0.042c1.619,0,2.933,1.313,2.933,2.933c0,0.847-0.363,1.602-0.935,2.136
	c0.3,0.906,0.573,1.873,0.816,2.904c2.686-0.809,5.144-1.252,7.157-1.252c2.55,0,4.412,0.673,5.226,2.077
	c1.453,2.519-0.836,6.785-5.469,11.144C50.368,36.348,52.658,40.613,51.204,43.131"/>
<path fill="#3DE3F4" d="M42.184,31.993c-0.658-0.547-1.352-1.099-2.102-1.653c0.015,0.547,0.031,1.092,0.031,1.647
	c0,0.56-0.016,1.108-0.031,1.657C40.819,33.102,41.513,32.551,42.184,31.993"/>
<path fill="#3DE3F4" d="M43.963,33.559c-1.232,1.036-2.571,2.065-4.031,3.065c-0.138,1.764-0.358,3.441-0.639,5.024
	c1.322,0.407,2.581,0.717,3.755,0.919c0.875-1.181,2.506-1.555,3.81-0.802c0.405,0.232,0.721,0.555,0.964,0.916
	c0.763-0.175,1.194-0.454,1.35-0.724C49.838,40.806,48.124,37.45,43.963,33.559"/>
<path fill="#3DE3F4" d="M34.835,26.908c-0.974-0.561-1.953-1.077-2.933-1.569c-0.981,0.491-1.959,1.007-2.933,1.569
	c-0.977,0.564-1.915,1.152-2.828,1.752c-0.061,1.071-0.104,2.172-0.104,3.327c0,1.129,0.041,2.234,0.102,3.324
	c0.897,0.591,1.83,1.178,2.831,1.755c0.974,0.564,1.952,1.077,2.933,1.569c0.979-0.491,1.959-1.005,2.933-1.569
	c0.976-0.562,1.915-1.15,2.827-1.749c0.063-1.071,0.106-2.173,0.106-3.33c0-1.127-0.04-2.233-0.103-3.324
	C36.768,28.074,35.836,27.487,34.835,26.908"/>
<path fill="#3DE3F4" d="M34.572,39.884c0.833,0.364,1.658,0.697,2.47,0.999c0.145-0.839,0.275-1.711,0.378-2.635
	c-0.465,0.287-0.931,0.574-1.412,0.851C35.527,39.376,35.05,39.624,34.572,39.884"/>
</svg>
