<?xml version="1.0" encoding="utf-8"?>
<!-- Generator: Adobe Illustrator 19.1.0, SVG Export Plug-In . SVG Version: 6.00 Build 0)  -->
<svg version="1.1" id="Layer_1" xmlns="http://www.w3.org/2000/svg" xmlns:xlink="http://www.w3.org/1999/xlink" x="0px" y="0px"
	 viewBox="0 0 87.261 153.865" enable-background="new 0 0 87.261 153.865" xml:space="preserve">
<g>
	<g>
		<path d="M42.131,0C18.864,0,0,18.863,0,42.131c0,7.661,2.153,14.783,5.617,21.035c10.347,18.64,13.087,29.107,14.774,39.237
			c1.417,8.492,3.377,10.464,9.791,10.464c2.728,0,7.194,0,11.949,0s9.221,0,11.947,0c6.418,0,8.376-1.975,9.793-10.464
			c1.688-10.13,4.429-20.599,14.776-39.237c3.465-6.251,5.615-13.374,5.615-21.035C84.263,18.863,65.398,0,42.131,0z"/>
		<path d="M57.185,115.917H27.076c-1.246,0-2.258,1.01-2.258,2.258v1.505c0,1.248,1.012,2.258,2.258,2.258h30.108
			c1.246,0,2.258-1.01,2.258-2.258v-1.505C59.443,116.927,58.431,115.917,57.185,115.917z"/>
		<path d="M57.185,124.95H27.076c-1.246,0-2.258,1.01-2.258,2.258v1.505c0,1.248,1.012,2.258,2.258,2.258h30.108
			c1.246,0,2.258-1.01,2.258-2.258v-1.505C59.443,125.96,58.431,124.95,57.185,124.95z"/>
		<path d="M57.185,133.982H27.076c-1.246,0-2.258,1.01-2.258,2.258v1.505c0,1.248,1.012,2.258,2.258,2.258h30.108
			c1.246,0,2.258-1.01,2.258-2.258v-1.505C59.443,134.993,58.431,133.982,57.185,133.982z"/>
		<path d="M30.84,143.015h22.581c0,4.516-6.022,7.527-11.291,7.527S30.84,147.531,30.84,143.015z"/>
	</g>
	<g>
		<path fill="#1CE9F9" d="M45.735,35.536c-0.178-0.778-0.385-1.515-0.614-2.207c-1.165-0.088-2.088-1.05-2.088-2.24
			c0-0.473,0.148-0.913,0.399-1.277c-0.502-0.659-0.966-0.979-1.301-0.979c-1.026,0-2.602,2.435-3.594,6.708
			c1.163,0.421,2.366,0.926,3.594,1.513C43.363,36.463,44.569,35.959,45.735,35.536"/>
		<path fill="#1CE9F9" d="M38.972,49.646c-0.373-0.214-0.732-0.436-1.093-0.658c0.078,0.698,0.179,1.371,0.291,2.032
			c0.627-0.233,1.263-0.49,1.907-0.77C39.709,50.049,39.342,49.859,38.972,49.646"/>
		<path fill="#1CE9F9" d="M40.077,38.1c-0.642-0.28-1.276-0.536-1.9-0.768c-0.111,0.645-0.211,1.316-0.292,2.027
			c0.359-0.22,0.716-0.442,1.087-0.654C39.342,38.491,39.709,38.3,40.077,38.1"/>
		<path fill="#1CE9F9" d="M45.289,38.704c0.372,0.215,0.732,0.436,1.092,0.658c-0.078-0.699-0.178-1.371-0.291-2.032
			c-0.626,0.232-1.261,0.489-1.906,0.77C44.552,38.3,44.919,38.491,45.289,38.704"/>
		<path fill="#1CE9F9" d="M28.844,36.503c-0.512,0.888,0.805,3.469,4.008,6.463c0.947-0.797,1.978-1.588,3.102-2.357
			c0.106-1.357,0.275-2.648,0.491-3.865c-1.927-0.594-3.702-0.935-5.143-0.935C29.785,35.808,29.038,36.168,28.844,36.503"/>
		<path fill="#1CE9F9" d="M32.843,45.376c-0.574,0.535-1.097,1.07-1.575,1.602c0.143,0.898-0.261,1.83-1.095,2.311
			c-0.256,0.147-0.529,0.235-0.806,0.276c-0.605,1.107-0.736,1.914-0.523,2.282c0.194,0.336,0.942,0.695,2.455,0.695
			c1.443,0,3.217-0.341,5.145-0.935c-0.217-1.217-0.386-2.507-0.491-3.865C34.827,46.97,33.791,46.176,32.843,45.376"/>
		<path fill="#1CE9F9" d="M34.22,44.17c0.506,0.422,1.039,0.846,1.616,1.272c-0.011-0.42-0.023-0.84-0.023-1.267
			c0-0.431,0.012-0.852,0.023-1.275C35.27,43.318,34.735,43.743,34.22,44.17"/>
		<path fill="#1CE9F9" d="M38.526,52.814c0.236,1.026,0.51,1.99,0.832,2.862c0.972,2.639,2.119,3.841,2.773,3.841
			c1.026,0,2.602-2.434,3.594-6.707c-1.163-0.421-2.366-0.925-3.594-1.513C40.899,51.887,39.693,52.392,38.526,52.814"/>
		<path fill="#1CE9F9" d="M55.418,36.503c-0.194-0.335-0.942-0.695-2.455-0.695c-1.443,0-3.218,0.341-5.145,0.935
			c0.217,1.217,0.386,2.508,0.491,3.865c1.126,0.771,2.161,1.566,3.109,2.366c0.769-0.715,1.467-1.435,2.059-2.148
			C55.277,38.665,55.744,37.071,55.418,36.503"/>
		<path fill="#1CE9F9" d="M42.131,21.612c-12.441,0-22.562,10.122-22.562,22.562c0,12.441,10.121,22.562,22.562,22.562
			s22.562-10.121,22.562-22.562C64.693,31.734,54.571,21.612,42.131,21.612 M56.981,52.748c-0.421,0.73-1.217,1.196-2.288,1.426
			c-0.05,0.208-0.118,0.412-0.229,0.606c-0.623,1.078-2.003,1.448-3.082,0.825c-0.589-0.34-0.956-0.907-1.077-1.525
			c-0.894-0.157-1.852-0.396-2.85-0.696c-1.123,4.767-3.085,7.937-5.324,7.937c-2.239,0-4.201-3.169-5.323-7.937
			c-2.068,0.622-3.957,0.962-5.508,0.962c-1.96,0-3.394-0.516-4.019-1.598c-0.551-0.956-0.401-2.238,0.316-3.696
			c-0.195-0.163-0.371-0.356-0.505-0.59c-0.624-1.079-0.254-2.46,0.825-3.082c0.745-0.432,1.63-0.378,2.313,0.046
			c0.387-0.414,0.811-0.832,1.257-1.252c-3.564-3.353-5.327-6.635-4.208-8.574c0.625-1.08,2.06-1.598,4.019-1.598
			c1.551,0,3.44,0.34,5.508,0.963c1.123-4.767,3.084-7.938,5.323-7.938c1.02,0,1.98,0.672,2.834,1.838
			c0.106-0.014,0.213-0.033,0.324-0.033c1.246,0,2.256,1.01,2.256,2.256c0,0.651-0.279,1.232-0.719,1.644
			c0.231,0.697,0.441,1.441,0.628,2.234c2.067-0.622,3.957-0.963,5.506-0.963c1.962,0,3.395,0.517,4.021,1.598
			c1.118,1.938-0.643,5.22-4.208,8.574C56.338,47.53,58.1,50.811,56.981,52.748"/>
		<path fill="#1CE9F9" d="M50.041,44.179c-0.506-0.421-1.04-0.845-1.617-1.272c0.012,0.421,0.024,0.84,0.024,1.267
			c0,0.431-0.012,0.852-0.024,1.275C48.991,45.032,49.525,44.608,50.041,44.179"/>
		<path fill="#1CE9F9" d="M51.41,45.384c-0.948,0.797-1.978,1.589-3.102,2.358c-0.106,1.357-0.275,2.647-0.491,3.865
			c1.017,0.313,1.985,0.552,2.889,0.707c0.673-0.908,1.928-1.196,2.932-0.617c0.312,0.178,0.555,0.427,0.742,0.705
			c0.587-0.134,0.919-0.349,1.038-0.557C55.93,50.959,54.611,48.377,51.41,45.384"/>
		<path fill="#1CE9F9" d="M44.387,40.267c-0.749-0.432-1.503-0.828-2.256-1.207c-0.755,0.378-1.507,0.775-2.256,1.207
			c-0.752,0.434-1.474,0.886-2.176,1.348c-0.047,0.824-0.08,1.671-0.08,2.56c0,0.869,0.032,1.719,0.078,2.558
			c0.69,0.455,1.408,0.906,2.178,1.35c0.749,0.434,1.502,0.828,2.256,1.207c0.754-0.378,1.507-0.773,2.256-1.207
			c0.751-0.433,1.473-0.885,2.175-1.346c0.048-0.824,0.081-1.672,0.081-2.562c0-0.867-0.031-1.718-0.079-2.558
			C45.874,41.164,45.157,40.712,44.387,40.267"/>
		<path fill="#1CE9F9" d="M44.184,50.249c0.641,0.28,1.276,0.536,1.9,0.769c0.111-0.645,0.212-1.317,0.291-2.027
			c-0.358,0.221-0.716,0.442-1.086,0.655C44.919,49.859,44.552,50.049,44.184,50.249"/>
	</g>
</g>
</svg>
