<?xml version="1.0" encoding="utf-8"?>
<!-- Generator: Adobe Illustrator 19.1.0, SVG Export Plug-In . SVG Version: 6.00 Build 0)  -->
<svg version="1.1" id="Layer_1" xmlns="http://www.w3.org/2000/svg" xmlns:xlink="http://www.w3.org/1999/xlink" x="0px" y="0px"
	 viewBox="0 0 41.525 40.5" enable-background="new 0 0 41.525 40.5" xml:space="preserve">
<g opacity="0.6">
	<g>
		<path fill="#FFFFFF" d="M20.096,23.354c-0.131-0.079-0.282-0.134-0.454-0.16c-0.172-0.028-0.351-0.041-0.536-0.041h-1.257v2.205
			h1.257c0.185,0,0.364-0.014,0.536-0.043c0.172-0.026,0.323-0.079,0.454-0.158c0.131-0.08,0.234-0.191,0.315-0.334
			c0.078-0.145,0.117-0.333,0.117-0.568c0-0.234-0.04-0.422-0.117-0.566C20.331,23.545,20.226,23.433,20.096,23.354z"/>
		<path fill="#FFFFFF" d="M27.536,23.917c-0.164-0.213-0.383-0.377-0.654-0.49c-0.271-0.113-0.608-0.17-1.005-0.17h-1.154v4.637
			h1.441c0.234,0,0.462-0.037,0.68-0.113c0.221-0.075,0.417-0.201,0.588-0.377c0.172-0.174,0.309-0.402,0.412-0.685
			c0.104-0.28,0.155-0.623,0.155-1.03c0-0.373-0.037-0.707-0.108-1.005C27.819,24.385,27.701,24.13,27.536,23.917z"/>
		<path fill="#FFFFFF" d="M38.123,18.435H14.084c-0.906,0-1.639,0.733-1.639,1.639v10.833c0,0.904,0.734,1.639,1.639,1.639h24.039
			c0.904,0,1.639-0.735,1.639-1.639V20.074C39.762,19.168,39.027,18.435,38.123,18.435z M21.957,25.133
			c-0.093,0.28-0.241,0.531-0.443,0.751c-0.204,0.22-0.466,0.396-0.789,0.531c-0.323,0.134-0.714,0.201-1.174,0.201h-1.7v2.638
			h-1.618v-7.359h3.318c0.46,0,0.852,0.068,1.174,0.201c0.324,0.135,0.586,0.311,0.789,0.531c0.202,0.22,0.35,0.472,0.443,0.759
			c0.092,0.285,0.139,0.575,0.139,0.87C22.095,24.559,22.049,24.85,21.957,25.133z M29.413,27.017
			c-0.138,0.454-0.345,0.845-0.623,1.175c-0.279,0.33-0.625,0.59-1.042,0.776c-0.416,0.191-0.905,0.285-1.468,0.285h-3.174v-7.358
			h3.174c0.475,0,0.916,0.077,1.325,0.228c0.408,0.151,0.762,0.377,1.061,0.68c0.3,0.302,0.533,0.679,0.702,1.133
			c0.169,0.454,0.252,0.987,0.252,1.598C29.618,26.069,29.549,26.565,29.413,27.017z M35.915,23.257H32.36v1.7h3.082v1.257H32.36
			v3.04h-1.618v-7.359h5.174L35.915,23.257L35.915,23.257z"/>
		<path fill="#FFFFFF" d="M29.832,36.592H5.404V4.406h19.497v4.085c0,0.43,0.348,0.779,0.78,0.779h4.151v6.635h2.6V8.479
			c0-0.348-0.141-0.682-0.388-0.925L26.594,2.18c-0.243-0.239-0.57-0.373-0.913-0.373H4.104c-0.719,0-1.301,0.581-1.301,1.3v34.785
			c0,0.719,0.582,1.301,1.301,1.301h27.027c0.72,0,1.301-0.582,1.301-1.301v-2.68h-2.6C29.832,35.212,29.832,36.592,29.832,36.592z"
			/>
	</g>
</g>
</svg>
