<?xml version="1.0" encoding="utf-8"?>
<!-- Generator: Adobe Illustrator 19.1.0, SVG Export Plug-In . SVG Version: 6.00 Build 0)  -->
<svg version="1.1" id="Layer_1" xmlns="http://www.w3.org/2000/svg" xmlns:xlink="http://www.w3.org/1999/xlink" x="0px" y="0px"
	 viewBox="0 0 87.261 153.865" enable-background="new 0 0 87.261 153.865" xml:space="preserve">
<g>
	<g>
		<path d="M30.182,112.367c-6.198,0-7.936-1.878-9.298-10.046c-1.863-11.186-4.994-21.678-14.83-39.397
			C2.369,56.271,0.5,49.275,0.5,42.131C0.5,19.176,19.175,0.5,42.131,0.5c11.12,0,21.574,4.33,29.438,12.193
			c7.864,7.863,12.194,18.318,12.193,29.438c0,7.152-1.868,14.147-5.553,20.793c-9.837,17.721-12.968,28.213-14.831,39.397
			c-1.363,8.168-3.102,10.046-9.3,10.046H30.182z"/>
		<path fill="#1CE9F9" d="M42.131,1c10.986,0,21.315,4.278,29.084,12.047c7.769,7.769,12.047,18.098,12.046,29.084
			c0,7.066-1.847,13.98-5.49,20.55C67.9,80.464,64.756,91.002,62.884,102.239c-1.396,8.365-3.229,9.629-8.806,9.629H42.131H30.182
			c-5.577,0-7.409-1.264-8.805-9.629c-1.872-11.238-5.015-21.776-14.886-39.558C2.848,56.105,1,49.19,1,42.131
			C1,19.451,19.451,1,42.131,1 M42.131,0C18.864,0,0,18.863,0,42.131c0,7.661,2.153,14.783,5.617,21.035
			c10.347,18.64,13.087,29.107,14.774,39.237c1.417,8.492,3.377,10.464,9.791,10.464c2.728,0,7.194,0,11.948,0
			c4.754,0,9.221,0,11.947,0c6.418,0,8.376-1.975,9.793-10.464c1.688-10.13,4.429-20.599,14.776-39.237
			c3.465-6.251,5.615-13.374,5.615-21.035C84.263,18.863,65.398,0,42.131,0L42.131,0z"/>
	</g>
	<g>
		<path d="M27.077,121.439c-0.97,0-1.759-0.789-1.759-1.759v-1.505c0-0.97,0.789-1.759,1.759-1.759h30.108
			c0.97,0,1.758,0.789,1.758,1.759v1.505c0,0.97-0.788,1.759-1.758,1.759H27.077z"/>
		<path fill="#1CE9F9" d="M57.185,116.917c0.694,0,1.258,0.564,1.258,1.258v1.505c0,0.694-0.564,1.258-1.258,1.258H27.076
			c-0.694,0-1.258-0.564-1.258-1.258v-1.505c0-0.694,0.564-1.258,1.258-1.258H57.185 M57.185,115.917H27.076
			c-1.246,0-2.258,1.01-2.258,2.258v1.505c0,1.248,1.012,2.258,2.258,2.258h30.108c1.246,0,2.258-1.01,2.258-2.258v-1.505
			C59.443,116.927,58.431,115.917,57.185,115.917L57.185,115.917z"/>
	</g>
	<g>
		<path d="M27.077,130.472c-0.97,0-1.759-0.788-1.759-1.758v-1.506c0-0.97,0.789-1.758,1.759-1.758h30.108
			c0.97,0,1.758,0.788,1.758,1.758v1.506c0,0.97-0.788,1.758-1.758,1.758H27.077z"/>
		<path fill="#1CE9F9" d="M57.185,125.95c0.694,0,1.258,0.564,1.258,1.258v1.505c0,0.694-0.564,1.258-1.258,1.258H27.076
			c-0.694,0-1.258-0.564-1.258-1.258v-1.505c0-0.694,0.564-1.258,1.258-1.258H57.185 M57.185,124.95H27.076
			c-1.246,0-2.258,1.01-2.258,2.258v1.505c0,1.248,1.012,2.258,2.258,2.258h30.108c1.246,0,2.258-1.01,2.258-2.258v-1.505
			C59.443,125.96,58.431,124.95,57.185,124.95L57.185,124.95z"/>
	</g>
	<g>
		<path d="M27.077,139.504c-0.97,0-1.759-0.788-1.759-1.758v-1.506c0-0.97,0.789-1.758,1.759-1.758h30.108
			c0.97,0,1.758,0.788,1.758,1.758v1.506c0,0.97-0.788,1.758-1.758,1.758H27.077z"/>
		<path fill="#1CE9F9" d="M57.185,134.982c0.694,0,1.258,0.564,1.258,1.258v1.505c0,0.694-0.564,1.258-1.258,1.258H27.076
			c-0.694,0-1.258-0.564-1.258-1.258v-1.505c0-0.694,0.564-1.258,1.258-1.258H57.185 M57.185,133.982H27.076
			c-1.246,0-2.258,1.01-2.258,2.258v1.505c0,1.248,1.012,2.258,2.258,2.258h30.108c1.246,0,2.258-1.01,2.258-2.258v-1.505
			C59.443,134.993,58.431,133.982,57.185,133.982L57.185,133.982z"/>
	</g>
	<g>
		<path d="M42.131,150.042c-4.896,0-10.327-2.655-10.762-6.527h21.524C52.459,147.387,47.026,150.042,42.131,150.042z"/>
		<path fill="#1CE9F9" d="M52.29,144.015c-0.857,3.223-5.746,5.527-10.159,5.527s-9.301-2.304-10.159-5.527H52.29 M53.421,143.015
			H30.84c0,4.516,6.022,7.527,11.291,7.527C47.4,150.542,53.421,147.531,53.421,143.015L53.421,143.015z"/>
	</g>
</g>
<g>
	<circle fill="#1CE9F9" cx="28.586" cy="28.182" r="4.687"/>
	<g>
		<path fill="#1CE9F9" d="M20.871,28.182c0-0.217,0.015-0.431,0.032-0.643h-3.89v1.286h3.89
			C20.886,28.612,20.871,28.399,20.871,28.182z"/>
		<path fill="#1CE9F9" d="M23.607,22.293l-2.925-2.925l-0.909,0.909l2.925,2.925C22.975,22.875,23.28,22.57,23.607,22.293z"/>
		<path fill="#1CE9F9" d="M28.586,20.467c0.217,0,0.431,0.015,0.643,0.033v-3.891h-1.286v3.89
			C28.156,20.481,28.369,20.467,28.586,20.467z"/>
		<path fill="#1CE9F9" d="M34.475,23.202l2.575-2.575l-0.909-0.909l-2.575,2.575C33.893,22.57,34.197,22.874,34.475,23.202z"/>
		<path fill="#1CE9F9" d="M33.566,34.07l2.575,2.575l0.909-0.909l-2.575-2.575C34.198,33.489,33.893,33.793,33.566,34.07z"/>
		<path fill="#1CE9F9" d="M36.269,27.539c0.018,0.212,0.033,0.425,0.033,0.643c0,0.218-0.015,0.431-0.033,0.643h3.89v-1.286
			L36.269,27.539L36.269,27.539z"/>
		<path fill="#1CE9F9" d="M28.586,35.897c-0.217,0-0.431-0.015-0.643-0.032v3.89h1.286v-3.89
			C29.017,35.882,28.804,35.897,28.586,35.897z"/>
		<path fill="#1CE9F9" d="M22.698,33.161l-2.925,2.925l0.909,0.909l2.925-2.925C23.28,33.793,22.975,33.489,22.698,33.161z"/>
	</g>
</g>
<rect x="44.263" y="59.161" fill="#1CE9F9" width="3.981" height="6.634"/>
<polygon fill="#1CE9F9" points="49.58,55.503 49.58,56.83 57.541,56.83 62.848,51.523 62.848,50.196 54.888,50.196 "/>
<polygon fill="#1CE9F9" points="53.224,47.869 57.868,43.225 49.907,43.225 45.263,47.869 "/>
<polygon fill="#1CE9F9" points="43.936,50.196 38.629,55.503 38.629,56.83 46.59,56.83 46.59,55.503 46.59,55.503 51.897,50.196 "/>
<polygon fill="#1CE9F9" points="46.917,43.225 38.956,43.225 34.312,47.869 42.273,47.869 "/>
<polygon fill="#1CE9F9" points="32.986,50.196 27.678,55.503 27.678,56.83 35.639,56.83 35.639,55.503 40.946,50.196 "/>
<polygon fill="#1CE9F9" points="60.858,43.225 56.214,47.869 64.175,47.869 64.175,49.196 68.819,44.553 68.819,43.225 "/>
</svg>
