<?xml version="1.0" encoding="utf-8"?>
<!-- Generator: Adobe Illustrator 19.1.0, SVG Export Plug-In . SVG Version: 6.00 Build 0)  -->
<svg version="1.1" id="Layer_1" xmlns="http://www.w3.org/2000/svg" xmlns:xlink="http://www.w3.org/1999/xlink" x="0px" y="0px"
	 viewBox="0 0 64 64" enable-background="new 0 0 64 64" xml:space="preserve">
<circle fill="#3DE3F4" cx="16.833" cy="16.81" r="8.519"/>
<g>
	<path fill="#3DE3F4" d="M6.611,16.81c0-0.288,0.02-0.571,0.043-0.852H1.5v1.703h5.154C6.631,17.38,6.611,17.098,6.611,16.81z"/>
	<path fill="#3DE3F4" d="M10.236,9.008L6.362,5.134L5.157,6.338l3.875,3.875C9.399,9.779,9.802,9.375,10.236,9.008z"/>
	<path fill="#3DE3F4" d="M16.833,6.588c0.288,0,0.571,0.02,0.852,0.044V1.477h-1.703v5.154C16.263,6.608,16.546,6.588,16.833,6.588z
		"/>
	<path fill="#3DE3F4" d="M24.635,10.212l3.412-3.412l-1.205-1.205L23.43,9.008C23.865,9.375,24.267,9.778,24.635,10.212z"/>
	<path fill="#3DE3F4" d="M23.43,24.612l3.412,3.412l1.205-1.204l-3.412-3.412C24.268,23.841,23.865,24.245,23.43,24.612z"/>
	<path fill="#3DE3F4" d="M27.012,15.958c0.023,0.281,0.044,0.564,0.044,0.852c0,0.288-0.02,0.57-0.044,0.852h5.154v-1.703
		L27.012,15.958L27.012,15.958z"/>
	<path fill="#3DE3F4" d="M16.833,27.032c-0.288,0-0.57-0.02-0.852-0.043v5.154h1.703v-5.154
		C17.404,27.012,17.121,27.032,16.833,27.032z"/>
	<path fill="#3DE3F4" d="M9.032,23.407l-3.875,3.875l1.205,1.205l3.875-3.875C9.802,24.245,9.399,23.841,9.032,23.407z"/>
</g>
<rect x="33.87" y="54.296" fill="#3DE3F4" width="5.111" height="8.519"/>
<polygon fill="#3DE3F4" points="38.13,50.884 38.13,52.587 48.352,52.587 55.167,45.773 55.167,44.069 44.945,44.069 "/>
<polygon fill="#3DE3F4" points="52.611,36.402 46.648,42.365 56.871,42.365 56.871,44.069 62.833,38.107 62.833,36.402 "/>
<polygon fill="#3DE3F4" points="44.092,42.365 50.055,36.402 39.833,36.402 33.87,42.365 "/>
<polygon fill="#3DE3F4" points="32.167,44.069 25.352,50.884 25.352,52.587 35.574,52.587 35.574,50.884 35.574,50.884 
	42.389,44.069 "/>
<polygon fill="#3DE3F4" points="37.278,36.402 27.056,36.402 21.093,42.365 31.315,42.365 "/>
<polygon fill="#3DE3F4" points="19.389,44.069 12.574,50.884 12.574,52.587 22.797,52.587 22.797,50.884 29.611,44.069 "/>
</svg>
