<?xml version="1.0" encoding="utf-8"?>
<!-- Generator: Adobe Illustrator 19.1.0, SVG Export Plug-In . SVG Version: 6.00 Build 0)  -->
<svg version="1.1" id="Layer_1" xmlns="http://www.w3.org/2000/svg" xmlns:xlink="http://www.w3.org/1999/xlink" x="0px" y="0px"
	 viewBox="0 0 87.261 153.865" enable-background="new 0 0 87.261 153.865" xml:space="preserve">
<g>
	<g>
		<path d="M42.131,0C18.864,0,0,18.863,0,42.131c0,7.661,2.153,14.783,5.617,21.035c10.347,18.64,13.087,29.107,14.774,39.237
			c1.417,8.492,3.377,10.464,9.791,10.464c2.728,0,7.194,0,11.949,0s9.221,0,11.947,0c6.418,0,8.376-1.975,9.793-10.464
			c1.688-10.13,4.429-20.599,14.776-39.237c3.465-6.251,5.615-13.374,5.615-21.035C84.263,18.863,65.398,0,42.131,0z"/>
		<path d="M57.185,115.917H27.076c-1.246,0-2.258,1.01-2.258,2.258v1.505c0,1.248,1.012,2.258,2.258,2.258h30.108
			c1.246,0,2.258-1.01,2.258-2.258v-1.505C59.443,116.927,58.431,115.917,57.185,115.917z"/>
		<path d="M57.185,124.95H27.076c-1.246,0-2.258,1.01-2.258,2.258v1.505c0,1.248,1.012,2.258,2.258,2.258h30.108
			c1.246,0,2.258-1.01,2.258-2.258v-1.505C59.443,125.96,58.431,124.95,57.185,124.95z"/>
		<path d="M57.185,133.982H27.076c-1.246,0-2.258,1.01-2.258,2.258v1.505c0,1.248,1.012,2.258,2.258,2.258h30.108
			c1.246,0,2.258-1.01,2.258-2.258v-1.505C59.443,134.993,58.431,133.982,57.185,133.982z"/>
		<path d="M30.84,143.015h22.581c0,4.516-6.022,7.527-11.291,7.527S30.84,147.531,30.84,143.015z"/>
	</g>
	<g>
		<g>
			<path fill="#1CE9F9" d="M63.65,65.748c-0.873-0.451-1.993-0.674-3.108-0.674c-1.116,0-2.152,0.222-3.11,0.674
				c-0.874,0.373-1.911,0.598-3.027,0.598c-1.036,0-2.073-0.225-3.029-0.598c-0.955-0.451-1.993-0.674-3.108-0.674
				s-2.153,0.222-3.109,0.674c-0.955,0.373-1.992,0.598-3.03,0.598c-1.115,0-2.151-0.225-3.028-0.598
				c-0.957-0.451-2.073-0.674-3.188-0.674c-1.035,0-2.152,0.222-3.108,0.674c-0.878,0.373-1.913,0.598-3.029,0.598
				c-1.036,0-2.073-0.225-3.028-0.598c-0.958-0.451-1.995-0.674-3.109-0.674c-1.116,0-2.151,0.222-3.109,0.674
				c-0.955,0.372-1.992,0.596-3.03,0.596v-4.27c1.038,0,2.074-0.224,3.029-0.596c0.959-0.451,1.994-0.679,3.109-0.679
				c1.115,0,2.152,0.228,3.109,0.679c0.955,0.373,1.992,0.596,3.028,0.596c1.116,0,2.151-0.224,3.029-0.596
				c0.957-0.451,2.073-0.679,3.108-0.679c1.115,0,2.231,0.228,3.188,0.679c0.877,0.373,1.913,0.596,3.028,0.596
				c1.039,0,2.075-0.224,3.03-0.596c0.957-0.451,1.993-0.679,3.109-0.679c1.117,0,2.153,0.228,3.108,0.679
				c0.957,0.373,1.993,0.596,3.029,0.596c1.116,0,2.153-0.224,3.027-0.596c0.959-0.451,1.994-0.679,3.11-0.679
				s2.234,0.228,3.108,0.679c0.958,0.373,1.993,0.596,3.109,0.596v4.27C65.641,66.345,64.606,66.12,63.65,65.748z"/>
		</g>
		<g>
			<path fill="#1CE9F9" d="M63.65,54.787c-0.873-0.451-1.993-0.673-3.108-0.673c-1.116,0-2.152,0.221-3.11,0.673
				c-0.557,0.239-1.194,0.385-1.86,0.483v-8.598l4.229,2.637l0.182,0.098h0.098l0.225-0.045l0.083-0.098
				c0.158-0.185,0.094-0.426-0.055-0.598l-3.096-2.869c-0.032-0.037-0.156-0.161-0.422-0.254c-0.236-0.083-0.879-0.171-1.242-0.217
				v-0.294h-0.157l-0.031-5.912c0.023-0.198-0.09-0.431-0.406-0.476c-0.225,0-0.362,0.179-0.421,0.37l-0.77,4.146
				c-0.011,0.032-0.059,0.211,0.005,0.49c0.073,0.326,0.516,1.247,0.58,1.382h-0.032l-0.014-0.025l-0.034,0.025h-0.112v0.075
				l-4.937,3.402c-0.181,0.097-0.308,0.324-0.197,0.555l0.2,0.225h0.177l4.058-1.736c0.033-0.009,0.207-0.071,0.401-0.282
				c0.074-0.082,0.185-0.24,0.297-0.412v8.502c-0.961-0.03-1.917-0.228-2.803-0.575c-0.955-0.451-1.993-0.673-3.108-0.673
				s-2.153,0.221-3.109,0.673c-0.541,0.212-1.111,0.359-1.69,0.461V35.802l5.759,8.268c0.026,0.027,0.244,0.261,0.512,0.261
				c0.084,0,0.161-0.023,0.235-0.07c0.322-0.209,0.231-0.567,0.144-0.715l-6.475-14.516c0.257-0.405,0.384-0.874,0.316-1.355
				c-0.041-0.299-0.16-0.57-0.321-0.816c0.78-0.512,2.367-1.578,2.834-2.061c0.458-0.465,0.553-0.837,0.552-0.837l4.181-10.977
				c0.049-0.206,0.049-0.592-0.265-0.723l-0.195-0.04c-0.32,0-0.479,0.324-0.479,0.325l-8.285,13.436
				c-0.631-0.003-1.261,0.239-1.652,0.76c-0.128,0.169-0.197,0.361-0.263,0.551c-0.912-0.412-2.579-1.142-3.229-1.282
				c-0.504-0.112-1.038-0.039-1.039-0.038l-11.932,2.171c-0.209,0.067-0.548,0.267-0.497,0.605c0.056,0.314,0.33,0.428,0.608,0.428
				c0.001,0,0.003,0,0.005,0l16.428,0.046c0.089,0.11,0.166,0.224,0.278,0.316h-0.06v25.696c-0.544-0.102-1.06-0.249-1.526-0.449
				c-0.957-0.451-2.073-0.673-3.188-0.673c-1.035,0-2.152,0.221-3.108,0.673c-0.166,0.07-0.362,0.106-0.538,0.166V40.765
				c0.089-0.111,0.156-0.235,0.204-0.373l7.617-2.799c0.225-0.058,0.426-0.269,0.373-0.564c-0.049-0.221-0.218-0.328-0.59-0.362
				l-5.952,0.983c-0.044,0.001-0.279,0.019-0.598,0.228c-0.281,0.179-0.877,0.758-1.251,1.131c-0.164-0.129-0.349-0.233-0.569-0.269
				c-0.086-0.012-0.166,0.009-0.248,0.012l-5.558-5.825c-0.026-0.034-0.169-0.201-0.393-0.201l-0.189,0.033l-0.072,0.051
				c-0.227,0.158-0.222,0.45-0.106,0.682l3.27,5.073c0.019,0.039,0.134,0.251,0.448,0.451c0.26,0.177,0.961,0.471,1.451,0.668
				c-0.011,0.038-0.034,0.069-0.04,0.109c-0.056,0.362,0.058,0.708,0.273,0.973l-2.26,8.277c-0.09,0.234-0.035,0.535,0.248,0.655
				l0.164,0.032c0.272,0,0.444-0.253,0.491-0.332l1.765-3.711v9.602c-0.32,0.039-0.631,0.097-0.967,0.097
				c-1.036,0-2.073-0.226-3.028-0.6c-0.958-0.451-1.995-0.673-3.109-0.673c-1.116,0-2.151,0.221-3.109,0.673
				c-0.955,0.374-1.992,0.6-3.029,0.6v4.269c1.038,0,2.074-0.222,3.029-0.596c0.959-0.451,1.994-0.677,3.109-0.677
				c1.115,0,2.152,0.226,3.109,0.677c0.955,0.374,1.992,0.596,3.028,0.596c1.116,0,2.151-0.222,3.029-0.596
				c0.957-0.451,2.073-0.677,3.108-0.677c1.115,0,2.231,0.226,3.188,0.677c0.877,0.374,1.913,0.596,3.028,0.596
				c1.039,0,2.075-0.222,3.03-0.596c0.957-0.451,1.993-0.677,3.109-0.677s2.153,0.226,3.108,0.677
				c0.957,0.374,1.993,0.596,3.029,0.596c1.116,0,2.153-0.222,3.027-0.596c0.959-0.451,1.994-0.677,3.11-0.677
				s2.234,0.226,3.108,0.677c0.958,0.374,1.993,0.596,3.109,0.596v-4.269C65.641,55.386,64.606,55.161,63.65,54.787z"/>
		</g>
	</g>
</g>
</svg>
