<?xml version="1.0" encoding="utf-8"?>
<!-- Generator: Adobe Illustrator 19.1.0, SVG Export Plug-In . SVG Version: 6.00 Build 0)  -->
<svg version="1.1" id="Layer_1" xmlns="http://www.w3.org/2000/svg" xmlns:xlink="http://www.w3.org/1999/xlink" x="0px" y="0px"
	 viewBox="0 0 64 64" enable-background="new 0 0 64 64" xml:space="preserve">
<g>
	<path fill="#3DE3F4" d="M55.918,61.156c-0.97-0.502-2.215-0.749-3.455-0.749c-1.24,0-2.392,0.247-3.457,0.749
		c-0.971,0.415-2.124,0.664-3.364,0.664c-1.152,0-2.304-0.25-3.366-0.664c-1.062-0.502-2.215-0.749-3.455-0.749
		s-2.393,0.247-3.456,0.749c-1.062,0.415-2.214,0.664-3.368,0.664c-1.239,0-2.39-0.25-3.365-0.664
		c-1.063-0.502-2.304-0.749-3.543-0.749c-1.15,0-2.392,0.247-3.455,0.749c-0.976,0.415-2.126,0.664-3.366,0.664
		c-1.152,0-2.304-0.25-3.365-0.664c-1.064-0.502-2.217-0.749-3.456-0.749c-1.24,0-2.39,0.247-3.456,0.749
		c-1.062,0.413-2.214,0.663-3.368,0.663v-4.746c1.154,0,2.306-0.248,3.366-0.663c1.066-0.502,2.216-0.755,3.456-0.755
		c1.239,0,2.392,0.253,3.456,0.755c1.062,0.415,2.214,0.663,3.365,0.663c1.24,0,2.39-0.248,3.366-0.663
		c1.063-0.502,2.304-0.755,3.455-0.755c1.239,0,2.48,0.253,3.543,0.755c0.975,0.415,2.126,0.663,3.365,0.663
		c1.155,0,2.307-0.248,3.368-0.663c1.063-0.502,2.215-0.755,3.456-0.755c1.241,0,2.393,0.253,3.455,0.755
		c1.063,0.415,2.215,0.663,3.366,0.663c1.24,0,2.393-0.248,3.364-0.663c1.066-0.502,2.216-0.755,3.457-0.755
		c1.241,0,2.484,0.253,3.455,0.755c1.064,0.415,2.215,0.663,3.456,0.663v4.746C58.132,61.819,56.981,61.57,55.918,61.156z"/>
</g>
<g>
	<path fill="#3DE3F4" d="M55.918,48.973c-0.97-0.502-2.215-0.748-3.455-0.748c-1.24,0-2.392,0.246-3.457,0.748
		c-0.619,0.265-1.327,0.428-2.068,0.536v-9.557l4.701,2.932l0.202,0.109h0.109l0.25-0.05l0.092-0.109
		c0.176-0.205,0.104-0.473-0.061-0.664l-3.442-3.188c-0.036-0.041-0.173-0.179-0.469-0.282c-0.263-0.092-0.977-0.19-1.381-0.241
		v-0.327h-0.174l-0.035-6.571c0.025-0.22-0.1-0.479-0.452-0.529c-0.25,0-0.403,0.199-0.468,0.411l-0.855,4.609
		c-0.012,0.036-0.066,0.234,0.006,0.545c0.081,0.362,0.573,1.386,0.645,1.536H45.57l-0.016-0.027l-0.038,0.027h-0.124v0.084
		l-5.488,3.781c-0.201,0.108-0.343,0.36-0.219,0.616l0.222,0.25h0.197l4.511-1.929c0.037-0.01,0.231-0.079,0.446-0.313
		c0.082-0.091,0.205-0.266,0.33-0.458v9.45c-1.068-0.033-2.131-0.253-3.115-0.639c-1.062-0.502-2.215-0.748-3.455-0.748
		c-1.24,0-2.393,0.246-3.456,0.748c-0.601,0.235-1.235,0.399-1.878,0.512V27.871l6.401,9.19c0.029,0.03,0.271,0.29,0.569,0.29
		c0.093,0,0.179-0.025,0.262-0.078c0.358-0.232,0.257-0.631,0.16-0.794L33.68,20.345c0.286-0.45,0.426-0.971,0.351-1.506
		c-0.045-0.332-0.178-0.633-0.357-0.907c0.867-0.569,2.63-1.754,3.15-2.291c0.509-0.517,0.615-0.931,0.614-0.931l4.647-12.2
		c0.055-0.229,0.055-0.658-0.295-0.804l-0.216-0.044c-0.356,0-0.533,0.36-0.533,0.361l-9.209,14.934
		c-0.701-0.004-1.401,0.265-1.836,0.845c-0.142,0.188-0.219,0.401-0.293,0.613c-1.014-0.458-2.867-1.27-3.589-1.425
		c-0.56-0.124-1.154-0.043-1.155-0.042L11.697,19.36c-0.232,0.074-0.609,0.296-0.552,0.673c0.062,0.349,0.367,0.475,0.676,0.475
		c0.001,0,0.004,0,0.006,0l18.259,0.051c0.099,0.122,0.184,0.248,0.309,0.351h-0.067v28.562c-0.604-0.113-1.178-0.277-1.696-0.499
		c-1.063-0.502-2.304-0.748-3.543-0.748c-1.15,0-2.392,0.246-3.455,0.748c-0.184,0.078-0.403,0.118-0.598,0.184V33.388
		c0.099-0.123,0.173-0.262,0.227-0.415l8.466-3.111c0.25-0.065,0.473-0.299,0.415-0.627c-0.055-0.246-0.243-0.364-0.656-0.403
		l-6.616,1.093c-0.049,0.001-0.311,0.022-0.664,0.253c-0.312,0.199-0.975,0.842-1.391,1.257c-0.183-0.143-0.388-0.259-0.632-0.299
		c-0.096-0.013-0.184,0.01-0.276,0.013l-6.177-6.475c-0.029-0.038-0.188-0.223-0.437-0.223l-0.21,0.037l-0.08,0.056
		c-0.252,0.176-0.247,0.501-0.118,0.759l3.635,5.638c0.022,0.043,0.149,0.28,0.498,0.502c0.289,0.197,1.068,0.523,1.613,0.743
		c-0.012,0.042-0.038,0.076-0.044,0.121c-0.062,0.403,0.065,0.787,0.303,1.081l-2.512,9.2c-0.1,0.26-0.039,0.595,0.276,0.728
		l0.183,0.036c0.302,0,0.493-0.281,0.546-0.369l1.962-4.125v10.672c-0.356,0.043-0.701,0.108-1.075,0.108
		c-1.152,0-2.304-0.251-3.365-0.667c-1.064-0.502-2.217-0.748-3.456-0.748c-1.24,0-2.39,0.246-3.456,0.748
		c-1.062,0.416-2.214,0.667-3.366,0.667v4.745c1.154,0,2.306-0.247,3.366-0.663c1.066-0.502,2.216-0.753,3.456-0.753
		c1.239,0,2.392,0.251,3.456,0.753c1.062,0.416,2.214,0.663,3.365,0.663c1.24,0,2.39-0.247,3.366-0.663
		c1.063-0.502,2.304-0.753,3.455-0.753c1.239,0,2.48,0.251,3.543,0.753c0.975,0.416,2.126,0.663,3.365,0.663
		c1.155,0,2.307-0.247,3.368-0.663c1.063-0.502,2.215-0.753,3.456-0.753c1.241,0,2.393,0.251,3.455,0.753
		c1.063,0.416,2.215,0.663,3.366,0.663c1.24,0,2.393-0.247,3.364-0.663c1.066-0.502,2.216-0.753,3.457-0.753
		c1.241,0,2.484,0.251,3.455,0.753c1.064,0.416,2.215,0.663,3.456,0.663v-4.745C58.132,49.639,56.981,49.388,55.918,48.973z"/>
</g>
</svg>
